<svg width="572" height="476" viewBox="0 0 572 476" fill="none" xmlns="http://www.w3.org/2000/svg">
<g clip-path="url(#clip0)">
<path opacity="0.1" d="M332.336 63.1535C295.666 61.8779 260.741 50.0352 227.391 37.0756C194.041 24.1161 161.009 9.75623 125.217 2.89095C102.196 -1.52528 75.8664 -2.14888 57.3218 10.1984C39.4684 22.1035 33.7005 42.5973 30.6012 61.6341C28.2668 75.9543 26.8956 91.0284 33.2868 104.43C37.7289 113.739 45.6046 121.562 51.0552 130.48C70.0192 161.501 56.6135 199.756 36.0688 230.046C26.4367 244.258 15.2465 257.825 7.80707 272.938C0.367685 288.052 -3.07154 305.394 3.43863 320.825C9.88648 336.132 25.2582 347.606 41.9104 355.685C75.7304 372.097 115.568 376.791 154.442 379.449C240.468 385.34 326.947 382.789 413.2 380.237C445.122 379.291 477.18 378.333 508.581 373.395C526.02 370.651 544.021 366.303 556.684 355.792C572.753 342.453 576.736 319.867 565.965 303.138C547.902 275.081 497.974 268.114 485.333 238.005C478.387 221.429 485.52 202.97 495.622 187.596C517.289 154.624 553.602 125.695 555.512 88.0068C556.826 62.1217 539.369 36.1969 512.377 23.946C484.087 11.1111 444.85 12.7212 423.988 33.9746C402.486 55.8573 364.716 64.2759 332.336 63.1535Z" fill="#6C63FF"/>
<path opacity="0.1" d="M273.943 466.062C369.062 466.062 446.171 455.625 446.171 442.751C446.171 429.876 369.062 419.439 273.943 419.439C178.824 419.439 101.715 429.876 101.715 442.751C101.715 455.625 178.824 466.062 273.943 466.062Z" fill="#6C63FF"/>
<path d="M188.682 373.35C188.682 373.35 200.58 371.445 207.719 379.858C207.719 379.858 202.484 383.985 191.22 378.27L188.682 373.35Z" fill="#6C63FF"/>
<path d="M187.412 373.163C187.412 373.163 179.82 382.562 183.543 392.919C183.543 392.919 189.73 390.442 190.404 377.823L187.412 373.163Z" fill="#6C63FF"/>
<path d="M180.613 357.794C180.613 357.794 185.373 349.063 204.41 361.286C204.41 361.286 201.872 367.159 193.464 366.683C185.055 366.207 182.806 362.397 180.613 357.794Z" fill="#6C63FF"/>
<path d="M179.361 357.164C179.361 357.164 169.485 356.031 168.528 378.65C168.528 378.65 174.789 379.954 179.236 372.794C183.684 365.634 181.843 361.632 179.361 357.164Z" fill="#6C63FF"/>
<path d="M173.604 339.125C173.604 339.125 179.157 323.722 199.311 334.675C199.311 334.675 194.71 348.808 175.667 344.364L173.604 339.125Z" fill="#6C63FF"/>
<path d="M167.417 316.103C167.417 316.103 177.888 300.547 196.455 314.969C196.455 314.969 189.951 329.573 169.004 321.636L167.417 316.103Z" fill="#6C63FF"/>
<path d="M165.196 294.198C165.196 294.198 177.412 279.912 195.792 294.198C195.792 294.198 184.206 306.738 165.196 297.849V294.198Z" fill="#6C63FF"/>
<path d="M163.292 272.927C163.292 272.927 175.667 258.001 193.282 272.134C193.282 272.134 179.316 285.309 163.292 276.42V272.927Z" fill="#6C63FF"/>
<path d="M164.403 254.032C164.403 254.032 177.435 234.825 193.917 247.842C193.917 247.842 179.95 264.356 164.403 257.683V254.032Z" fill="#6C63FF"/>
<path d="M167.417 231.968C167.417 231.968 181.22 212.92 197.249 227.524C197.249 227.524 180.902 244.032 167.417 235.46V231.968Z" fill="#6C63FF"/>
<path d="M172.024 212.245C172.024 212.245 188.359 194.348 202.62 201.474C202.62 201.474 185.588 220.482 171.31 216.99L172.024 212.245Z" fill="#6C63FF"/>
<path d="M177.729 193.554C177.729 193.554 196.614 171.643 207.561 178.945C207.561 178.945 193.668 195.952 176.398 197.681L177.729 193.554Z" fill="#6C63FF"/>
<path d="M185.973 171.864C185.973 171.864 202.484 153.961 214.541 158.406C214.541 158.406 200.422 176.984 183.758 177.46L185.973 171.864Z" fill="#6C63FF"/>
<path d="M193.441 151.58C193.441 151.58 211.686 134.437 219.618 137.453C219.618 137.453 206.45 156.501 192.648 155.39L193.441 151.58Z" fill="#6C63FF"/>
<path d="M200.739 132.85C200.739 132.85 216.445 112.373 225.012 113.96C225.012 113.96 215.493 132.215 200.739 134.936V132.85Z" fill="#6C63FF"/>
<path d="M208.654 107.611C208.654 107.611 222.541 91.9074 230.038 91.9471C230.038 91.9471 219.08 112.923 208.088 112.73L208.654 107.611Z" fill="#6C63FF"/>
<path d="M213.351 90.7792L226.757 58.0799C226.757 58.0799 227.431 87.6386 211.64 96.8452L213.351 90.7792Z" fill="#6C63FF"/>
<path d="M218.791 54.7181C218.791 54.7181 221.012 27.4157 219.584 25.1935C219.584 25.1935 229.176 47.8698 218.7 66.7819L218.791 54.7181Z" fill="#6C63FF"/>
<path d="M173.089 338.757C173.089 338.757 159.179 330.134 150.182 351.229C150.182 351.229 162.556 359.449 174.721 344.137L173.089 338.757Z" fill="#6C63FF"/>
<path d="M166.976 315.224C166.976 315.224 149.921 307.441 141.643 329.465C141.643 329.465 154.822 338.536 168.528 320.791L166.976 315.224Z" fill="#6C63FF"/>
<path d="M164.403 295.507C164.403 295.507 152.187 281.221 133.807 295.507C133.807 295.507 145.388 308.047 164.403 299.158V295.507Z" fill="#6C63FF"/>
<path d="M162.879 272.927C162.879 272.927 150.499 258.001 132.889 272.134C132.889 272.134 146.85 285.309 162.879 276.42V272.927Z" fill="#6C63FF"/>
<path d="M164.403 254.576C164.403 254.576 155.723 233.062 136.855 242.314C136.855 242.314 147.054 261.396 163.638 258.148L164.403 254.576Z" fill="#6C63FF"/>
<path d="M168.511 231.86C168.511 231.86 159.887 209.972 140.748 220.12C140.748 220.12 152.465 240.183 167.661 235.245L168.511 231.86Z" fill="#6C63FF"/>
<path d="M173.86 212.359C173.86 212.359 170.46 188.356 154.624 186.207C154.624 186.207 157.984 211.514 171.746 216.679L173.86 212.359Z" fill="#6C63FF"/>
<path d="M178.137 193.594C178.137 193.594 176.806 164.682 163.689 163.678C163.689 163.678 164.131 185.618 176.659 197.693L178.137 193.594Z" fill="#6C63FF"/>
<path d="M187.339 171.037C187.339 171.037 183.424 147 170.908 144.057C170.908 144.057 172.46 167.34 186.098 176.938L187.339 171.037Z" fill="#6C63FF"/>
<path d="M194.926 151.756C194.926 151.756 194.79 126.71 187.141 123.031C187.141 123.031 182.398 145.707 192.71 154.953L194.926 151.756Z" fill="#6C63FF"/>
<path d="M201.323 132.555C201.323 132.555 200.246 106.76 192.331 103.127C192.331 103.127 189.617 123.535 200.133 134.239L201.323 132.555Z" fill="#6C63FF"/>
<path d="M209.765 109.652C209.765 109.652 209.714 88.676 204.059 83.7552C204.059 83.7552 198.438 106.738 206.813 113.869L209.765 109.652Z" fill="#6C63FF"/>
<path d="M212.683 89.7475L207.187 54.8315C207.187 54.8315 199.708 83.4434 212.943 96.0458L212.683 89.7475Z" fill="#6C63FF"/>
<path d="M213.759 55.0469C213.759 55.0469 199.634 31.5825 199.929 28.9691C199.929 28.9691 201.424 53.573 219.193 65.8182L213.759 55.0469Z" fill="#6C63FF"/>
<path d="M215.414 48.1193C215.414 48.1193 202.087 14.7793 196.059 12.0808C196.059 12.0808 215.096 21.7637 216.524 47.1669L215.414 48.1193Z" fill="#6C63FF"/>
<path d="M208.014 112.911L207.102 112.634C218.348 75.9375 221.159 52.5412 215.006 46.6793L215.663 45.9877C222.179 52.1727 219.538 75.2969 208.014 112.911Z" fill="#444053"/>
<path d="M177.044 198.81L175.701 198.333C176.891 194.972 178.177 191.559 179.525 188.191C191.265 158.916 201.26 131.687 207.668 110.78L208.841 110.213C202.422 131.16 192.608 159.438 180.851 188.747C179.508 192.08 178.228 195.482 177.044 198.81Z" fill="#444053"/>
<path d="M205.425 400.816C205.243 400.612 187.01 380.079 174.307 345.01C166.858 324.486 162.708 302.91 162.012 281.085C161.14 253.8 166.862 223.334 176.664 195.663L177.729 196.91C155.729 259.021 164.471 312.248 176.064 344.307C188.642 379.053 206.66 399.371 206.841 399.569L205.425 400.816Z" fill="#444053"/>
<path d="M367.93 164.302H365.505C364.788 164.302 364.207 164.883 364.207 165.6V204.399C364.207 205.116 364.788 205.697 365.505 205.697H367.93C368.646 205.697 369.227 205.116 369.227 204.399V165.6C369.227 164.883 368.646 164.302 367.93 164.302Z" fill="#3A3768"/>
<path d="M198.903 131.869H198.682C197.965 131.869 197.385 132.45 197.385 133.167V144.199C197.385 144.916 197.965 145.497 198.682 145.497H198.903C199.62 145.497 200.201 144.916 200.201 144.199V133.167C200.201 132.45 199.62 131.869 198.903 131.869Z" fill="#3A3768"/>
<path d="M199.158 156.824H198.58C197.864 156.824 197.283 157.405 197.283 158.122V179.245C197.283 179.962 197.864 180.544 198.58 180.544H199.158C199.875 180.544 200.456 179.962 200.456 179.245V158.122C200.456 157.405 199.875 156.824 199.158 156.824Z" fill="#3A3768"/>
<path d="M199.056 188.843H198.631C197.914 188.843 197.333 189.425 197.333 190.141V211.469C197.333 212.186 197.914 212.767 198.631 212.767H199.056C199.773 212.767 200.353 212.186 200.353 211.469V190.141C200.353 189.425 199.773 188.843 199.056 188.843Z" fill="#3A3768"/>
<path d="M344.824 86.8336H221.068C208.868 86.8336 198.977 96.7298 198.977 108.937V406.23C198.977 418.438 208.868 428.334 221.068 428.334H344.824C357.025 428.334 366.915 418.438 366.915 406.23V108.937C366.915 96.7298 357.025 86.8336 344.824 86.8336Z" fill="#3A3768"/>
<path d="M343.226 95.7057H323.962V98.0243C323.962 99.4676 323.678 100.897 323.125 102.23C322.573 103.563 321.764 104.775 320.744 105.795C319.723 106.815 318.512 107.625 317.179 108.176C315.847 108.728 314.418 109.012 312.976 109.011H251.71C250.267 109.012 248.839 108.728 247.506 108.176C246.173 107.625 244.962 106.815 243.942 105.795C242.921 104.775 242.112 103.563 241.56 102.23C241.008 100.897 240.723 99.4676 240.723 98.0243V95.7057H222.689C219.151 95.7057 215.759 97.1117 213.258 99.6144C210.756 102.117 209.351 105.511 209.351 109.051V406.094C209.351 409.634 210.756 413.028 213.258 415.531C215.759 418.033 219.151 419.439 222.689 419.439H343.226C346.763 419.439 350.156 418.033 352.657 415.531C355.158 413.028 356.564 409.634 356.564 406.094V109.073C356.567 107.319 356.224 105.581 355.555 103.96C354.886 102.338 353.904 100.864 352.665 99.6224C351.426 98.3808 349.955 97.3958 348.335 96.7237C346.716 96.0516 344.98 95.7057 343.226 95.7057Z" fill="#6C63FF"/>
<path d="M288.006 97.0323H268.94C267.729 97.0323 266.747 98.0145 266.747 99.2262V99.6004C266.747 100.812 267.729 101.794 268.94 101.794H288.006C289.217 101.794 290.198 100.812 290.198 99.6004V99.2262C290.198 98.0145 289.217 97.0323 288.006 97.0323Z" fill="#E6E8EC"/>
<path d="M296.448 102.117C297.941 102.117 299.151 100.907 299.151 99.4133C299.151 97.9198 297.941 96.7091 296.448 96.7091C294.955 96.7091 293.745 97.9198 293.745 99.4133C293.745 100.907 294.955 102.117 296.448 102.117Z" fill="#E6E8EC"/>
<path d="M425.059 71.8558C425.059 71.8558 377.352 68.9759 382.973 102.424C382.973 102.424 381.84 108.336 387.211 111.018C387.211 111.018 387.296 108.541 392.106 109.385C393.819 109.669 395.559 109.753 397.291 109.635C399.627 109.481 401.85 108.572 403.625 107.044C403.625 107.044 417.036 101.499 422.249 79.5714C422.249 79.5714 426.108 74.7867 425.955 73.5565L417.903 76.9977C417.903 76.9977 420.657 82.8085 418.47 87.6386C418.47 87.6386 418.209 77.2074 416.662 77.4342C416.351 77.4795 412.481 79.4467 412.481 79.4467C412.481 79.4467 417.212 89.566 413.643 96.9245C413.643 96.9245 414.997 84.4525 411.002 80.178L405.336 83.4888C405.336 83.4888 410.866 93.9426 407.115 102.475C407.115 102.475 408.079 89.3903 404.141 84.2938L399.007 88.3018C399.007 88.3018 404.203 98.6026 401.036 105.678C401.036 105.678 400.622 90.4504 397.897 89.2996C397.897 89.2996 393.404 93.268 392.718 94.8893C392.718 94.8893 396.276 102.373 394.067 106.318C394.067 106.318 392.713 96.1706 391.602 96.1139C391.602 96.1139 387.126 102.837 386.661 107.452C386.661 107.452 386.854 100.598 390.52 95.4789C390.52 95.4789 386.191 96.2216 383.664 99.0278C383.664 99.0278 384.361 94.2771 391.625 93.8576C391.625 93.8576 395.325 88.7554 396.31 88.4492C396.31 88.4492 389.092 87.8426 384.712 89.7871C384.712 89.7871 388.565 85.3029 397.636 87.3438L402.707 83.1997C402.707 83.1997 393.2 81.9014 389.166 83.3357C389.166 83.3357 393.806 79.3673 404.073 82.2586L409.591 78.9592C409.591 78.9592 401.483 77.2131 396.656 77.8254C396.656 77.8254 401.755 75.0758 411.212 78.0578L415.178 76.2834C415.178 76.2834 409.24 75.1155 407.501 74.9284C405.761 74.7414 405.671 74.2652 405.671 74.2652C409.432 73.6375 413.295 74.0673 416.827 75.5067C416.827 75.5067 425.201 72.383 425.059 71.8558Z" fill="#6C63FF"/>
<path d="M376.123 56.9801C376.123 56.9801 354.592 55.6819 357.108 70.7957C357.108 70.7957 356.604 73.4658 359.023 74.679C359.023 74.679 359.063 73.5452 361.238 73.9364C362.011 74.0665 362.797 74.1045 363.578 74.0497C364.635 73.9798 365.64 73.5657 366.44 72.8706C366.44 72.8706 372.502 70.3648 374.859 60.4552C374.859 60.4552 376.599 58.2953 376.531 57.7397L372.893 59.2931C372.893 59.2931 374.134 61.9179 373.159 64.1005C373.159 64.1005 373.04 59.3894 372.344 59.4972C372.202 59.4972 370.451 60.4099 370.451 60.4099C370.451 60.4099 372.593 64.9848 370.978 68.3069C370.978 68.3069 371.59 62.6719 369.783 60.7387L367.222 62.258C367.222 62.258 369.72 66.9804 368.026 70.8354C368.026 70.8354 368.462 64.9225 366.683 62.6208L364.366 64.4349C364.366 64.4349 366.712 69.0893 365.284 72.2866C365.284 72.2866 365.091 65.4044 363.862 64.8828C363.862 64.8828 361.833 66.6742 361.522 67.4112C361.522 67.4112 363.131 70.8127 362.133 72.5758C362.133 72.5758 361.522 67.9895 361 67.9668C361 67.9668 358.978 71.0054 358.768 73.069C358.869 71.1449 359.471 69.2807 360.513 67.6607C359.346 67.8819 358.269 68.4395 357.414 69.265C357.414 69.265 357.731 67.1164 361.012 66.9293C361.012 66.9293 362.711 64.622 363.131 64.4803C363.131 64.4803 359.867 64.2082 357.89 65.0869C357.89 65.0869 359.629 63.063 363.726 63.9814L365.992 62.1106C365.992 62.1106 361.692 61.5437 359.873 62.173C359.873 62.173 361.969 60.3815 366.61 61.6854L369.103 60.1945C369.103 60.1945 365.437 59.4065 363.255 59.6899C363.255 59.6899 365.561 58.4484 369.834 59.7919L371.618 58.9926C371.618 58.9926 368.933 58.4654 368.145 58.3803C367.357 58.2953 367.318 58.0799 367.318 58.0799C369.019 57.7968 370.765 57.9931 372.361 58.6468C372.361 58.6468 376.191 57.2182 376.123 56.9801Z" fill="#6C63FF"/>
<path opacity="0.1" d="M341.577 128.224H224.321V377.233H341.577V128.224Z" fill="black"/>
<path d="M337.985 446.747C337.985 446.747 335.22 440.307 333.985 437.337C333.288 435.636 332.11 435.353 331.209 435.392L331.26 434.825L331.481 432.144L331.526 431.577C333.662 431.129 335.492 430.778 335.492 430.778L334.161 362C334.161 362 333.594 361.274 332.223 356.898C331.543 354.715 328.257 352.034 325.186 349.897C324.704 349.562 324.234 349.245 323.769 348.939C324.888 348.001 326.063 347.134 327.288 346.342C329.033 345.327 329.611 339.539 329.611 339.539L329.322 340.106C329.611 339.539 329.322 324.76 329.322 324.76L328.302 309.419C328.302 309.419 327.577 291.182 321.911 286.403C316.245 281.624 309.089 279.951 309.089 279.951L305.123 278.931L297.814 277.054C297.61 276.72 297.411 276.368 297.247 276C297.173 275.858 297.105 275.711 297.037 275.563C299.27 273.982 301.092 271.887 302.349 269.456C303.606 267.024 304.262 264.327 304.261 261.589C304.263 260.67 304.189 259.752 304.041 258.845C304.041 258.675 303.978 258.499 303.944 258.329C304.545 257.918 305.113 257.461 305.644 256.963C306.51 256.273 307.217 255.405 307.718 254.418C307.796 254.224 307.861 254.025 307.91 253.822C307.91 253.766 307.91 253.709 307.944 253.647C307.978 253.584 307.995 253.346 308.012 253.193C308.012 253.136 308.012 253.08 308.012 253.023C308.012 252.859 308.012 252.689 308.012 252.524C308.012 252.485 308.012 252.445 308.012 252.399C308.012 252.212 307.984 252.025 307.956 251.833C307.958 251.821 307.958 251.81 307.956 251.799C307.852 251.14 307.681 250.494 307.446 249.871C306.879 248.408 306.143 247.037 305.876 245.478C305.548 243.635 305.927 241.623 305.049 239.967C304.684 239.341 304.186 238.804 303.589 238.393C302.993 237.982 302.313 237.709 301.599 237.592C300.16 237.37 298.689 237.538 297.338 238.079C296.677 238.394 295.965 238.586 295.236 238.646C294.705 238.615 294.185 238.489 293.7 238.272C292.018 237.612 290.42 236.754 288.941 235.715C287.876 234.875 286.738 234.131 285.541 233.493C284.94 233.179 284.276 233.002 283.599 232.974C282.921 232.947 282.245 233.07 281.62 233.334C279.524 234.4 279.127 237.371 277.178 238.68C275.835 239.587 274.085 239.497 272.464 239.553C270.844 239.61 269.008 240.013 268.209 241.418C267.642 242.394 267.778 243.556 267.886 244.695L267.92 245.081C267.92 245.217 267.92 245.358 267.954 245.495C268.043 246.952 267.825 248.412 267.314 249.78C266.532 251.855 265.047 253.902 265.098 256.016C265.103 256.353 265.147 256.688 265.229 257.014C265.273 257.177 265.326 257.338 265.387 257.496C265.699 258.197 266.049 258.88 266.436 259.543L266.487 259.633C266.526 259.713 266.566 259.792 266.6 259.871C266.634 259.951 266.702 260.087 266.742 260.195C266.781 260.302 266.787 260.302 266.804 260.353C266.821 260.404 266.878 260.563 266.906 260.671C266.999 260.991 267.04 261.324 267.025 261.657C266.958 262.087 266.922 262.521 266.917 262.955C266.919 263.173 266.996 263.383 267.134 263.552C267.272 263.72 267.463 263.835 267.676 263.879C267.91 263.874 268.138 263.803 268.334 263.675C268.842 263.385 269.325 263.054 269.779 262.683C269.779 262.865 269.779 263.046 269.813 263.25C270.207 267.308 272.033 271.092 274.963 273.925C274.963 274.101 274.963 274.282 274.923 274.492C274.884 274.702 274.895 274.9 274.884 275.11L268.538 277.105C268.538 277.105 268.572 277.219 268.64 277.412L267.971 277.678C264.679 279.01 261.013 280.666 258.962 282.168C258.056 282.826 257.228 283.364 256.486 283.812C253.791 285.462 251.725 287.966 250.616 290.927L250.531 291.142C249.965 292.44 247.188 301.273 247.188 301.273C247.188 301.273 245.154 306.194 244.86 309.38C244.86 309.38 241.517 319.941 242.389 326.891C242.389 326.891 239.772 336.88 240.792 338.468C240.792 338.468 239.749 342.765 244.327 347.09C243.993 347.295 243.63 347.516 243.251 347.759C239.704 349.993 234.587 353.616 233.715 356.41C232.361 360.759 231.777 361.513 231.777 361.513L230.406 430.182C230.406 430.182 232.236 430.534 234.372 430.976L234.417 431.543L234.638 434.219L234.689 434.786C233.788 434.746 232.61 435.058 231.913 436.736C230.672 439.701 227.947 446.135 227.947 446.135C227.947 446.135 221.845 451.804 225.544 457.065C225.708 457.305 225.898 457.526 226.111 457.723C228.768 460.138 234.434 458.59 238.463 457.014C240.51 456.14 242.275 454.715 243.562 452.898C243.725 452.686 243.929 452.509 244.163 452.379C244.397 452.249 244.656 452.169 244.922 452.144C245.846 451.995 246.717 451.615 247.455 451.039C247.899 450.715 248.258 450.287 248.5 449.793C248.743 449.3 248.863 448.754 248.849 448.204C248.846 448.176 248.846 448.148 248.849 448.119L248.492 440.052C248.492 440.052 248.055 434.417 246.667 434.78L246.31 434.865L246.214 434.298L246.027 433.204L245.931 432.637H246.701C246.701 432.637 246.894 426.265 249.222 421.254C251.551 416.242 253.081 375.759 253.081 375.759C253.081 375.759 281.904 376.23 282.867 373.525C283.433 373.525 284.051 373.525 284.64 373.486C285.609 376.19 312.811 376.32 312.811 376.32C312.811 376.32 314.358 416.849 316.681 421.866C317.171 422.94 317.579 424.051 317.899 425.188C318.631 427.817 319.07 430.518 319.208 433.244H319.979L319.877 433.811L319.69 434.899L319.594 435.466L319.225 435.381C317.848 435.024 317.412 440.659 317.412 440.659L317.044 448.777C317.015 449.324 317.123 449.87 317.359 450.365C317.594 450.86 317.95 451.289 318.392 451.612C319.143 452.201 320.029 452.591 320.97 452.745C321.237 452.767 321.496 452.845 321.73 452.974C321.965 453.103 322.169 453.28 322.33 453.494C323.619 455.309 325.383 456.734 327.43 457.609C331.781 459.31 338.036 460.971 340.359 457.666C344.087 452.394 337.985 446.747 337.985 446.747ZM264.725 345.645H264.792H264.725ZM310.25 322.47C310.25 322.47 310.981 325.219 312.284 326.665C313.588 328.11 312.942 337.09 312.942 337.09C312.429 337.123 311.92 337.204 311.423 337.334C310.42 331.364 309.497 324.737 310.25 322.47Z" fill="url(#paint0_linear)"/>
<path d="M247.579 435.63L236.185 436.764L235.868 432.949L235.647 430.324L235.335 426.486L246.1 427.053L246.956 431.979L247.137 433.051H247.143L247.579 435.63Z" fill="#8E6F7F"/>
<path d="M330.557 427.059L330.245 430.891L330.03 433.516L329.707 437.331L318.307 436.197L318.76 433.618L318.936 432.552L319.792 427.626L330.557 427.059Z" fill="#8E6F7F"/>
<path d="M318.483 371.847L284.6 373.44C283.059 373.516 281.518 373.516 279.977 373.44L247.607 371.853V346.195H318.483V371.847Z" fill="#5F5570"/>
<path opacity="0.1" d="M318.483 371.847L284.6 373.44C283.059 373.516 281.518 373.516 279.977 373.44L247.607 371.853V346.195H318.483V371.847Z" fill="black"/>
<path d="M275.093 277.066C275.093 277.066 263.806 280.858 259.557 283.976C258.673 284.623 257.857 285.156 257.143 285.592C254.519 287.211 252.51 289.661 251.438 292.554C251.409 292.633 251.381 292.701 251.353 292.763C250.786 294.039 248.095 302.684 248.095 302.684C248.095 302.684 246.112 307.503 245.828 310.621C245.545 313.739 261.976 322.101 261.976 322.101C261.976 322.101 254.044 339.392 257.585 343.785C261.126 348.179 312.828 350.305 311.695 343.785C310.562 337.266 308.579 326.495 309.57 323.518L327.135 310.763C327.135 310.763 326.426 292.905 320.902 288.228C315.378 283.551 308.437 281.85 308.437 281.85L297.439 279.016C297.439 279.016 293.564 288.653 289.314 289.929C285.065 291.204 275.756 285.314 275.093 277.066Z" fill="#EAEAF2"/>
<path opacity="0.1" d="M290.946 293.296C290.946 293.296 286.153 297.299 283.637 293.296C283.637 293.296 281.371 300.065 283.637 302.333L283.552 302.792L283.15 304.81L277.903 348.462L282.221 355.917L290.079 346.053L289.445 305.235L289.162 302.894L289.094 302.327H290.436C290.436 302.327 294 296.165 290.946 293.296Z" fill="black"/>
<path opacity="0.1" d="M292.08 293.296C292.08 293.296 287.286 297.299 284.771 293.296C284.771 293.296 282.504 300.065 284.771 302.333L284.686 302.792L284.283 304.81L279.037 348.462L283.354 355.917L291.213 346.053L290.578 305.235L290.295 302.894L290.227 302.327H291.57C291.57 302.327 295.134 296.165 292.08 293.296Z" fill="black"/>
<path d="M290.646 345.492L282.788 355.339L278.459 347.924L283.711 304.249L284.113 302.231L284.204 301.766L284.912 299.929L289.66 301.766L289.728 302.333L290.012 304.674L290.646 345.492Z" fill="#BC8487"/>
<path opacity="0.1" d="M246.956 431.974C244.511 431.958 242.073 431.71 239.675 431.231C238.491 430.936 237.007 430.608 235.653 430.318L235.335 426.48L246.101 427.047L246.956 431.974Z" fill="black"/>
<path d="M282.872 373.491C281.932 376.139 253.84 375.674 253.84 375.674C253.84 375.674 252.333 415.358 250.067 420.273C247.8 425.188 247.608 431.418 247.608 431.418C247.608 431.418 242.701 431.418 239.675 430.664C236.65 429.91 231.743 428.964 231.743 428.964L233.069 361.643C233.069 361.643 233.635 360.934 234.956 356.677C235.805 353.939 240.791 350.39 244.242 348.173C246.168 346.96 247.608 346.166 247.608 346.166L264.367 346.847L274.713 347.266C274.713 347.266 283.819 370.844 282.872 373.491Z" fill="#5F5570"/>
<path opacity="0.1" d="M247.585 435.625L236.185 436.759L235.862 432.943C236.289 432.955 236.71 433.047 237.103 433.215C239.182 434.712 245.126 433.521 247.137 433.045L247.585 435.625Z" fill="black"/>
<path d="M249.738 446.651C249.751 447.189 249.634 447.723 249.396 448.205C249.158 448.688 248.807 449.106 248.372 449.423C247.655 449.986 246.807 450.359 245.908 450.506C245.648 450.528 245.396 450.606 245.169 450.733C244.941 450.86 244.743 451.034 244.588 451.243C243.328 453.02 241.603 454.415 239.602 455.274C235.675 456.816 230.151 458.329 227.561 455.965C227.348 455.775 227.157 455.56 226.995 455.325C223.386 450.155 229.335 444.622 229.335 444.622C229.335 444.622 232.02 438.318 233.227 435.415C233.358 435.038 233.566 434.694 233.838 434.403C234.111 434.112 234.442 433.883 234.809 433.728C235.176 433.574 235.572 433.5 235.97 433.509C236.368 433.518 236.76 433.611 237.12 433.782C239.386 435.415 246.259 433.85 247.602 433.504C248.945 433.159 249.375 438.669 249.375 438.669L249.738 446.566C249.735 446.594 249.735 446.623 249.738 446.651Z" fill="#BC8487"/>
<path opacity="0.1" d="M330.563 427.053L330.245 430.885C328.891 431.174 327.412 431.503 326.217 431.798C323.821 432.277 321.385 432.528 318.942 432.546L319.797 427.62L330.563 427.053Z" fill="black"/>
<path d="M334.16 429.53C334.16 429.53 329.254 430.477 326.228 431.231C323.202 431.985 318.296 431.985 318.296 431.985C318.296 431.985 318.109 425.749 315.842 420.84C313.576 415.93 312.063 376.241 312.063 376.241C312.063 376.241 285.558 376.088 284.612 373.44C283.665 370.793 296.165 347.929 296.165 347.929L303.785 347.533L318.296 346.762C318.296 346.762 321.129 348.304 324.098 350.384C327.067 352.465 330.291 355.107 330.954 357.244C332.274 361.501 332.84 362.21 332.84 362.21L334.16 429.53Z" fill="#5F5570"/>
<path opacity="0.1" d="M330.03 433.51L329.713 437.325L318.307 436.192L318.761 433.612C320.772 434.094 326.693 435.279 328.789 433.782C329.182 433.614 329.603 433.522 330.03 433.51Z" fill="black"/>
<path d="M328.789 434.349C329.149 434.177 329.542 434.083 329.94 434.073C330.339 434.064 330.736 434.138 331.104 434.292C331.472 434.447 331.803 434.677 332.076 434.968C332.349 435.259 332.557 435.605 332.688 435.982C333.889 438.884 336.58 445.194 336.58 445.194C336.58 445.194 342.529 450.721 338.92 455.892C336.654 459.134 330.557 457.507 326.319 455.841C324.316 454.985 322.59 453.59 321.333 451.81C321.177 451.6 320.978 451.426 320.749 451.299C320.521 451.172 320.268 451.095 320.007 451.073C319.087 450.913 318.221 450.523 317.491 449.939C317.063 449.621 316.719 449.203 316.49 448.72C316.262 448.238 316.156 447.706 316.183 447.173L316.54 439.236C316.54 439.236 316.965 433.72 318.307 434.066C319.65 434.411 326.523 435.982 328.789 434.349Z" fill="#BC8487"/>
<path d="M299.502 281.85L288.062 293.982L287.745 294.322L287.331 294.079C284.94 292.661 272.98 285.439 274.005 283.268C274.572 282.032 274.906 279.458 275.082 277.241C275.082 276.975 275.116 276.714 275.138 276.459C275.252 274.707 275.28 273.347 275.28 273.347C275.28 273.347 296.811 269.662 295.961 273.347C295.615 274.838 296.131 276.516 296.862 277.984C297.077 278.409 297.315 278.812 297.547 279.192C298.119 280.134 298.773 281.024 299.502 281.85Z" fill="#FFC4D0"/>
<path opacity="0.1" d="M296.862 277.984C293.65 280.353 289.7 281.5 285.72 281.22C281.739 280.941 277.988 279.253 275.138 276.459C275.252 274.707 275.28 273.347 275.28 273.347C275.28 273.347 296.811 269.662 295.961 273.347C295.632 274.849 296.131 276.516 296.862 277.984Z" fill="black"/>
<path d="M303.7 263.874C303.762 268.237 302.127 272.454 299.14 275.634C296.153 278.814 292.047 280.707 287.691 280.915C283.334 281.122 279.067 279.627 275.792 276.746C272.516 273.865 270.488 269.822 270.135 265.472C270.09 264.943 270.067 264.41 270.067 263.874C270.026 261.639 270.431 259.419 271.257 257.343C272.083 255.266 273.315 253.376 274.88 251.781C276.444 250.186 278.311 248.92 280.371 248.055C282.43 247.19 284.642 246.745 286.875 246.745C289.109 246.745 291.32 247.19 293.38 248.055C295.439 248.92 297.306 250.186 298.871 251.781C300.436 253.376 301.667 255.266 302.494 257.343C303.32 259.419 303.724 261.639 303.683 263.874H303.7Z" fill="#FFC4D0"/>
<path opacity="0.1" d="M303.491 261.187C303.053 261.543 302.546 261.804 302.001 261.951C301.456 262.099 300.887 262.13 300.329 262.043C297.734 261.476 296.845 257.507 294.193 257.235C291.541 256.963 289.779 260.637 287.094 260.563C285.96 260.535 284.941 259.792 283.898 259.276C282.074 258.375 279.071 257.825 277.099 258.505C274.136 259.52 273.133 262.264 271.24 264.446C270.917 264.818 270.562 265.161 270.181 265.472C270.135 264.943 270.113 264.41 270.113 263.874C270.074 259.62 271.648 255.509 274.517 252.37C277.387 249.231 281.339 247.296 285.577 246.955C289.815 246.614 294.025 247.893 297.358 250.534C300.692 253.175 302.901 256.981 303.542 261.187H303.491Z" fill="black"/>
<path d="M283.898 258.715C284.94 259.225 285.938 259.973 287.094 260.002C289.774 260.07 291.524 256.379 294.187 256.668C296.85 256.957 297.729 260.892 300.335 261.476C302.086 261.873 303.734 260.563 305.043 259.344C305.889 258.67 306.579 257.821 307.066 256.855C307.633 255.449 307.338 253.828 306.811 252.399C306.284 250.971 305.542 249.599 305.281 248.097C304.964 246.294 305.332 244.321 304.477 242.7C304.123 242.087 303.637 241.561 303.055 241.159C302.473 240.757 301.809 240.489 301.111 240.375C299.71 240.158 298.275 240.32 296.958 240.846C296.316 241.158 295.623 241.35 294.913 241.413C294.394 241.381 293.885 241.256 293.411 241.044C291.772 240.398 290.217 239.559 288.776 238.544C287.744 237.72 286.638 236.991 285.473 236.367C284.888 236.06 284.241 235.887 283.581 235.86C282.92 235.834 282.262 235.955 281.654 236.214C279.614 237.257 279.224 240.183 277.325 241.447C276.017 242.331 274.311 242.24 272.736 242.303C271.161 242.365 269.336 242.745 268.589 244.123C267.92 245.307 268.254 246.764 268.339 248.119C268.424 249.546 268.21 250.975 267.71 252.314C266.832 254.661 265.047 256.974 265.682 259.401C266.096 260.994 267.523 262.315 267.438 263.936C267.372 264.354 267.336 264.777 267.331 265.2C267.333 265.414 267.407 265.62 267.542 265.785C267.677 265.95 267.864 266.063 268.073 266.107C268.3 266.105 268.521 266.033 268.708 265.903C269.65 265.376 270.495 264.692 271.206 263.879C273.121 261.691 274.113 258.953 277.076 257.938C279.076 257.275 282.073 257.808 283.898 258.715Z" fill="#8E6F7F"/>
<path d="M303.395 357.675L300.335 358.508L293.269 360.452C291.634 361.671 289.794 362.587 287.836 363.157C283.513 364.251 280.719 361.87 278.396 358.185C277.461 356.711 277.932 355.532 279.156 354.608C282.102 352.38 289.388 351.654 291.621 351.949C293.087 352.068 294.56 351.839 295.921 351.28C296.887 350.928 297.818 350.488 298.703 349.965L303.395 357.675Z" fill="#FFC4D0"/>
<path opacity="0.1" d="M303.395 357.675L300.335 358.508C299.457 355.861 298.012 352.538 295.944 351.263C296.91 350.911 297.841 350.471 298.726 349.948L303.395 357.675Z" fill="black"/>
<path opacity="0.1" d="M324.087 350.384C322.817 351.41 321.741 352.346 321.741 352.346C321.741 352.346 307.009 356.966 304.176 362.777C304.176 362.777 301.91 351.439 297.094 351.297C297.094 351.297 302.278 349.262 303.774 347.521L318.296 346.762C318.296 346.762 321.129 348.304 324.087 350.384Z" fill="black"/>
<path d="M323.865 305.944L327.123 310.763L328.115 325.786C328.115 325.786 328.398 340.242 328.115 340.809L328.398 340.242C328.398 340.242 327.832 345.911 326.132 346.903C324.432 347.895 320.608 351.212 320.608 351.212C320.608 351.212 305.876 355.832 303.043 361.643C303.043 361.643 300.777 350.305 295.961 350.163C295.961 350.163 303.185 347.329 303.043 345.486C303.043 345.486 308.567 340.526 308.992 339.25C309.417 337.974 312.177 337.833 312.177 337.833C312.177 337.833 312.817 329.046 311.542 327.628C310.267 326.211 309.559 323.518 309.559 323.518L323.865 305.944Z" fill="#EAEAF2"/>
<path opacity="0.1" d="M287.836 363.14C283.513 364.234 280.719 361.853 278.396 358.168C277.461 356.694 277.932 355.515 279.156 354.591L279.598 354.766C279.598 354.766 287.388 358.145 287.836 363.14Z" fill="black"/>
<path d="M286.045 367.669C280.946 374.756 271.456 364.903 270.747 362.918C270.492 362.199 269.523 361.558 268.407 361.042C266.991 360.423 265.521 359.935 264.016 359.585L272.447 352.714L274.062 353.36L279.031 355.35C279.031 355.35 291.145 360.583 286.045 367.669Z" fill="#FFC4D0"/>
<path opacity="0.1" d="M274.062 353.36C269.416 355.571 268.424 358.752 268.396 361.042C266.98 360.423 265.51 359.935 264.005 359.585L272.436 352.714L274.062 353.36Z" fill="black"/>
<path opacity="0.1" d="M266.64 365.611C266.64 365.611 253.041 354.84 246.525 350.163C245.71 349.582 244.951 348.925 244.259 348.202C246.185 346.988 247.625 346.195 247.625 346.195L264.384 346.875C264.832 347.652 265.098 348.179 265.098 348.179L274.164 354.131C263.24 357.675 266.64 365.611 266.64 365.611Z" fill="black"/>
<path d="M248.509 309.062L245.817 310.621C245.817 310.621 242.559 320.967 243.409 327.77C243.409 327.77 240.86 337.549 241.851 339.108C241.851 339.108 240.576 344.352 247.092 349.029C253.608 353.706 267.206 364.478 267.206 364.478C267.206 364.478 263.807 356.541 274.714 352.998L265.648 347.045C265.648 347.045 262.605 341.002 259.699 339.675C259.699 339.675 257.432 337.408 258.849 335.849C260.265 334.29 261.399 332.589 261.399 331.03C261.399 329.471 261.965 322.101 261.965 322.101L263.665 314.164L248.509 309.062Z" fill="#EAEAF2"/>
<path opacity="0.1" d="M289.728 302.327H284.204C284.171 302.296 284.14 302.262 284.113 302.225L284.204 301.76L284.912 299.924L289.66 301.76L289.728 302.327Z" fill="black"/>
<path d="M291.513 292.729C291.513 292.729 286.719 296.732 284.204 292.729C284.204 292.729 281.937 299.498 284.204 301.766H291.003C291.003 301.766 294.567 295.598 291.513 292.729Z" fill="#BC8487"/>
<path opacity="0.1" d="M297.995 279.583L305.134 281.425C305.134 281.425 298.369 298.999 296.879 298.999L288.312 294.889L297.995 279.583Z" fill="black"/>
<path opacity="0.1" d="M299.502 281.85L288.062 293.982L287.745 294.323L287.332 294.079L297.332 278.818L297.576 279.22C298.14 280.151 298.785 281.031 299.502 281.85Z" fill="black"/>
<path d="M297.428 279.016L304.567 280.858C304.567 280.858 297.802 298.433 296.312 298.433L287.745 294.322L297.428 279.016Z" fill="#EAEAF2"/>
<path opacity="0.1" d="M274.527 277.633L268.339 279.583C268.339 279.583 274.43 298.007 276.13 298.999L287.179 294.889L274.527 277.633Z" fill="black"/>
<path opacity="0.1" d="M288.062 293.982L287.745 294.322C287.745 294.322 272.872 285.677 274.005 283.268C274.572 282.032 274.906 279.458 275.082 277.241V276.896L288.062 293.982Z" fill="black"/>
<path d="M275.093 277.066L268.906 279.016C268.906 279.016 274.997 297.44 276.696 298.433L287.745 294.322L275.093 277.066Z" fill="#EAEAF2"/>
<path opacity="0.1" d="M260.356 307.163C260.356 307.163 264.084 307.826 264.016 311.698C263.948 315.57 265.552 306.692 265.552 306.692L260.356 307.163Z" fill="black"/>
<path opacity="0.1" d="M261.206 319.068C261.206 319.068 260.169 324.924 261.206 330.219C262.243 335.514 262.152 337.306 262.956 337.589C263.761 337.872 261.206 319.068 261.206 319.068Z" fill="black"/>
<path opacity="0.1" d="M308.8 318.501C308.502 318.539 308.217 318.641 307.963 318.802C307.71 318.962 307.494 319.175 307.332 319.428C307.17 319.68 307.065 319.965 307.025 320.262C306.985 320.56 307.011 320.862 307.1 321.149C307.576 323.518 308.8 318.501 308.8 318.501Z" fill="black"/>
<path opacity="0.1" d="M244.021 338.343C244.021 338.343 256.163 337.306 258.186 339.477C260.209 341.648 244.021 338.343 244.021 338.343Z" fill="black"/>
<path opacity="0.1" d="M314.466 339.165C314.466 339.165 323.344 338.071 325.424 339.585L314.466 339.165Z" fill="black"/>
<path opacity="0.1" d="M318.058 340.611C318.058 340.611 323.344 340.798 324.574 341.461L318.058 340.611Z" fill="black"/>
<path opacity="0.1" d="M319.095 342.51C319.095 342.51 323.911 342.323 324.574 343.077L319.095 342.51Z" fill="black"/>
<path opacity="0.1" d="M251.177 369.155C251.177 369.155 255.302 371.303 254.883 373.497C254.463 375.691 251.177 369.155 251.177 369.155Z" fill="black"/>
<path opacity="0.1" d="M247.607 370.198C247.607 370.198 253.902 378.367 253.047 381.06C252.191 383.752 247.607 370.198 247.607 370.198Z" fill="black"/>
<path opacity="0.1" d="M315.083 371.553C315.083 371.553 311.967 374.121 312.052 376.241L315.083 371.553Z" fill="black"/>
<path opacity="0.1" d="M243.126 422.161C243.126 422.161 243.126 424.57 247.585 428.113L243.126 422.161Z" fill="black"/>
<path opacity="0.1" d="M321.831 416.491C321.831 416.491 321.355 421.503 317.015 424.099L321.831 416.491Z" fill="black"/>
<g opacity="0.1">
<path opacity="0.1" d="M268.339 246.396C268.339 246.005 268.271 245.602 268.237 245.205C268.165 246.071 268.192 246.942 268.317 247.802C268.355 247.334 268.363 246.865 268.339 246.396Z" fill="black"/>
<path opacity="0.1" d="M267.438 262.235C267.523 260.591 266.095 259.27 265.682 257.7C265.661 257.624 265.646 257.546 265.637 257.468C265.507 258.107 265.523 258.768 265.682 259.401C266.016 260.699 267.025 261.81 267.342 263.069C267.37 262.774 267.427 262.507 267.438 262.235Z" fill="black"/>
<path opacity="0.1" d="M307.066 255.155C306.577 256.12 305.888 256.968 305.043 257.643C303.723 258.862 302.085 260.172 300.335 259.775C297.734 259.208 296.839 255.24 294.187 254.968C291.536 254.695 289.773 258.369 287.093 258.295C285.96 258.267 284.94 257.524 283.898 257.008C282.073 256.107 279.076 255.557 277.099 256.237C274.135 257.252 273.133 259.996 271.229 262.179C270.518 262.991 269.675 263.677 268.736 264.208C268.545 264.334 268.323 264.403 268.096 264.407C267.953 264.387 267.819 264.33 267.707 264.24C267.595 264.15 267.51 264.031 267.461 263.896V263.936C267.394 264.356 267.358 264.781 267.353 265.206C267.356 265.418 267.432 265.623 267.567 265.787C267.701 265.951 267.888 266.064 268.096 266.107C268.323 266.103 268.545 266.035 268.736 265.909C269.675 265.378 270.518 264.692 271.229 263.879C273.144 261.697 274.135 258.953 277.099 257.938C279.099 257.258 282.096 257.808 283.898 258.709C284.94 259.225 285.938 259.968 287.093 259.996C289.773 260.064 291.524 256.374 294.187 256.668C296.85 256.963 297.734 260.886 300.335 261.476C302.085 261.873 303.734 260.563 305.043 259.344C305.888 258.669 306.577 257.82 307.066 256.855C307.382 256.036 307.466 255.146 307.309 254.282C307.262 254.581 307.18 254.874 307.066 255.155Z" fill="black"/>
</g>
<path opacity="0.1" d="M229.341 444.627C229.341 444.627 233.97 443.199 235.89 445.908L229.341 444.627Z" fill="black"/>
<path opacity="0.1" d="M336.58 445.194C336.58 445.194 328.914 444.746 329.214 446.821L336.58 445.194Z" fill="black"/>
<path opacity="0.1" d="M489.634 440.993C498.061 440.993 504.892 439.838 504.892 438.414C504.892 436.989 498.061 435.834 489.634 435.834C481.207 435.834 474.376 436.989 474.376 438.414C474.376 439.838 481.207 440.993 489.634 440.993Z" fill="#6C63FF"/>
<path opacity="0.1" d="M51.6111 462.162C60.038 462.162 66.8694 461.007 66.8694 459.582C66.8694 458.158 60.038 457.003 51.6111 457.003C43.1841 457.003 36.3527 458.158 36.3527 459.582C36.3527 461.007 43.1841 462.162 51.6111 462.162Z" fill="#6C63FF"/>
<path opacity="0.1" d="M110.633 476C119.06 476 125.892 474.845 125.892 473.421C125.892 471.996 119.06 470.841 110.633 470.841C102.206 470.841 95.3749 471.996 95.3749 473.421C95.3749 474.845 102.206 476 110.633 476Z" fill="#6C63FF"/>
<path d="M456.233 469.911C468.816 469.911 479.016 468.185 479.016 466.056C479.016 463.927 468.816 462.201 456.233 462.201C443.651 462.201 433.451 463.927 433.451 466.056C433.451 468.185 443.651 469.911 456.233 469.911Z" fill="#6C63FF"/>
<path d="M465.656 459.752C466.694 458.903 467.451 457.758 467.826 456.47C468.109 455.172 467.554 453.635 466.308 453.131C464.914 452.598 463.424 453.567 462.296 454.542C461.169 455.518 459.871 456.634 458.392 456.425C459.153 455.736 459.723 454.862 460.046 453.887C460.368 452.912 460.433 451.87 460.234 450.863C460.167 450.446 459.989 450.054 459.718 449.729C458.947 448.902 457.542 449.253 456.619 449.911C453.672 451.98 452.851 455.988 452.834 459.588C452.534 458.29 452.789 456.935 452.777 455.62C452.766 454.304 452.409 452.785 451.281 452.088C450.586 451.714 449.804 451.53 449.015 451.555C447.689 451.504 446.216 451.64 445.31 452.609C444.176 453.811 444.482 455.829 445.457 457.145C446.431 458.46 447.922 459.304 449.293 460.217C450.39 460.872 451.325 461.765 452.029 462.831C452.114 462.98 452.183 463.137 452.233 463.301H460.511C462.378 462.355 464.108 461.161 465.656 459.752Z" fill="#6C63FF"/>
<path d="M111.421 410.029C111.421 410.029 114.537 414.105 109.987 420.233C105.438 426.361 101.687 431.571 103.188 435.409C103.188 435.409 110.055 423.986 115.653 423.827C121.251 423.669 117.568 416.9 111.421 410.029Z" fill="#6C63FF"/>
<path opacity="0.1" d="M111.421 410.029C111.693 410.423 111.906 410.855 112.055 411.31C117.506 417.716 120.413 423.697 115.172 423.844C110.293 423.986 104.44 432.716 103.035 434.922C103.081 435.092 103.137 435.256 103.2 435.426C103.2 435.426 110.067 424.003 115.665 423.844C121.263 423.686 117.568 416.9 111.421 410.029Z" fill="black"/>
<path d="M117.206 415.222C117.206 416.656 117.047 417.818 116.849 417.818C116.65 417.818 116.492 416.656 116.492 415.222C116.492 413.787 116.69 414.462 116.888 414.462C117.087 414.462 117.206 413.787 117.206 415.222Z" fill="#FFD037"/>
<path d="M119.194 416.934C117.937 417.62 116.837 418.033 116.747 417.858C116.656 417.682 117.591 416.985 118.849 416.299C120.107 415.613 119.614 416.112 119.704 416.299C119.795 416.486 120.452 416.248 119.194 416.934Z" fill="#FFD037"/>
<path d="M94.9839 410.029C94.9839 410.029 91.8676 414.105 96.4174 420.233C100.967 426.361 104.718 431.571 103.217 435.409C103.217 435.409 96.3551 423.986 90.7515 423.827C85.1478 423.669 88.825 416.9 94.9839 410.029Z" fill="#6C63FF"/>
<path opacity="0.1" d="M94.9839 410.029C94.7113 410.424 94.4958 410.855 94.3436 411.31C88.893 417.716 85.992 423.697 91.2274 423.844C96.1114 423.986 101.964 432.716 103.37 434.922C103.323 435.093 103.266 435.262 103.2 435.426C103.2 435.426 96.3381 424.003 90.7344 423.844C85.1308 423.686 88.825 416.9 94.9839 410.029Z" fill="black"/>
<path d="M89.1934 415.222C89.1934 416.656 89.3577 417.818 89.556 417.818C89.7543 417.818 89.9129 416.656 89.9129 415.222C89.9129 413.787 89.7146 414.462 89.5163 414.462C89.318 414.462 89.1934 413.787 89.1934 415.222Z" fill="#FFD037"/>
<path d="M87.2102 416.934C88.4681 417.62 89.5616 418.033 89.6579 417.858C89.7542 417.682 88.808 416.985 87.5502 416.299C86.2924 415.613 86.791 416.112 86.6946 416.299C86.5983 416.486 85.9524 416.248 87.2102 416.934Z" fill="#FFD037"/>
<path d="M90.1848 434.893C90.1848 434.893 98.8877 434.621 101.517 432.756C104.146 430.891 114.905 428.652 115.551 431.651C116.197 434.65 128.634 446.555 118.809 446.634C108.984 446.713 95.9754 445.103 93.3577 443.51C90.7401 441.917 90.1848 434.893 90.1848 434.893Z" fill="#A8A8A8"/>
<path opacity="0.2" d="M118.979 445.591C109.154 445.67 96.1454 444.06 93.5277 442.467C91.539 441.248 90.7401 436.889 90.4738 434.882H90.1848C90.1848 434.882 90.7514 441.9 93.3521 443.499C95.9527 445.098 108.979 446.702 118.804 446.623C121.637 446.623 122.617 445.591 122.566 444.094C122.169 445.013 121.087 445.574 118.979 445.591Z" fill="black"/>
</g>
<defs>
<linearGradient id="paint0_linear" x1="224.321" y1="346.257" x2="341.577" y2="346.257" gradientUnits="userSpaceOnUse">
<stop stop-color="#808080" stop-opacity="0.25"/>
<stop offset="0.54" stop-color="#808080" stop-opacity="0.12"/>
<stop offset="1" stop-color="#808080" stop-opacity="0.1"/>
</linearGradient>
<clipPath id="clip0">
<rect width="572" height="476" fill="white"/>
</clipPath>
</defs>
</svg>
