<svg width="191" height="250" viewBox="0 0 191 250" fill="none" xmlns="http://www.w3.org/2000/svg">
<path d="M90.3587 245.68C90.0456 245.681 89.7448 245.559 89.5198 245.341C89.2948 245.123 89.1633 244.827 89.1531 244.514L94.5199 169.39H101.982L91.5642 244.514C91.554 244.827 91.4225 245.123 91.1975 245.341C90.9725 245.559 90.6717 245.681 90.3587 245.68Z" fill="white" stroke="#3F4D79" stroke-width="5" stroke-miterlimit="10" stroke-linecap="round"/>
<path d="M136.727 245.68C136.414 245.681 136.113 245.559 135.888 245.341C135.663 245.123 135.531 244.827 135.521 244.514L125.103 169.39H132.565L137.932 244.514C137.922 244.827 137.791 245.123 137.566 245.341C137.341 245.559 137.04 245.681 136.727 245.68Z" fill="white" stroke="#3F4D79" stroke-width="5" stroke-miterlimit="10" stroke-linecap="round"/>
<path d="M158.234 245.68C157.921 245.681 157.62 245.559 157.395 245.341C157.17 245.123 157.038 244.827 157.028 244.514L146.61 169.39H154.072L159.439 244.514C159.429 244.827 159.298 245.123 159.073 245.341C158.848 245.559 158.547 245.681 158.234 245.68Z" fill="white" stroke="#3F4D79" stroke-width="5" stroke-miterlimit="10" stroke-linecap="round"/>
<path d="M160.992 153.282L158.838 161.93H151.754L153.909 153.282H160.992Z" fill="white" stroke="#3F4D79" stroke-width="5" stroke-miterlimit="10" stroke-linecap="round"/>
<path d="M133.343 153.282L131.188 161.93H124.105L126.26 153.282H133.343Z" fill="white" stroke="#3F4D79" stroke-width="5" stroke-miterlimit="10" stroke-linecap="round"/>
<path d="M159.796 161.335H85.7553C83.3144 161.335 81.3356 163.315 81.3356 165.757C81.3356 168.198 83.3144 170.178 85.7553 170.178H159.796C162.237 170.178 164.216 168.198 164.216 165.757C164.216 163.315 162.237 161.335 159.796 161.335Z" fill="#FFB000"/>
<path d="M190.257 92.5236L176.83 146.42C176.3 148.548 175.073 150.437 173.346 151.787C171.619 153.137 169.49 153.871 167.298 153.871H118.365C115.656 153.871 113.772 149.774 114.705 145.911L128.081 90.5652C128.716 87.9355 130.363 86.1903 132.208 86.1903H185.372C187.53 86.1903 190.993 89.4577 190.257 92.5236Z" fill="#FFB000"/>
<path d="M35.8296 232.676C35.8296 234.042 40.0541 238.226 38.6314 245.218C38.6314 245.218 28.2095 245.234 23.0971 245.266C17.0199 245.303 4.09406 245.303 4.09406 245.303C4.09406 245.303 2.83916 239.73 9.49645 238.958C16.1537 238.186 24.5927 231.146 24.5927 231.146L35.8296 232.676Z" fill="#E2631E"/>
<path d="M39.0793 245.858C33.0021 245.896 4.09406 245.896 4.09406 245.896" stroke="#3F4D79" stroke-width="7" stroke-miterlimit="10" stroke-linecap="round"/>
<path d="M24.7901 231.146C25.4491 229.308 26.3981 223.304 26.3981 223.304L37.1062 224.244C37.1062 224.244 35.3304 228.258 35.6323 232.479C35.7349 233.902 24.0659 233.162 24.7901 231.146Z" fill="#FFC0B7"/>
<path d="M132.856 156.234C120.95 161.102 65.1363 158.029 65.1363 158.029C65.1363 158.029 63.9938 201.779 43.0058 224.428C43.0058 224.428 28.5291 223.942 24.5612 222.918C24.5612 222.918 35.5317 157.44 43.3748 144.578C47.5183 137.769 94.1706 127.379 104.23 126.504C107.226 128.501 110.406 130.207 113.726 131.598C122.87 135.457 132.248 136.839 139.3 137.248C140.383 143.573 140.555 153.087 132.856 156.234Z" fill="#3C4564"/>
<path d="M43.9194 232.676C43.9194 234.042 48.1438 238.226 46.7212 245.218C46.7212 245.218 36.2992 245.234 31.1869 245.266C25.1097 245.303 12.1838 245.303 12.1838 245.303C12.1838 245.303 10.9289 239.73 17.5862 238.958C24.2435 238.186 32.6825 231.146 32.6825 231.146L43.9194 232.676Z" fill="#FE7523"/>
<path d="M47.1691 245.858C41.0919 245.896 12.1838 245.896 12.1838 245.896" stroke="#3F4D79" stroke-width="7" stroke-miterlimit="10" stroke-linecap="round"/>
<path d="M32.8798 231.146C33.5388 229.308 34.4879 223.304 34.4879 223.304L46.7745 224.639C46.7745 224.639 44.5449 226.684 43.7221 232.479C43.5208 233.89 32.1557 233.162 32.8798 231.146Z" fill="#FFCFC9"/>
<path d="M141.472 161.381C129.566 166.255 73.7529 163.175 73.7529 163.175C73.7529 163.175 74.9052 201.278 48.5404 224.708C48.5404 224.708 35.3482 223.759 31.3743 222.734C31.3743 222.734 48.2721 160.869 51.9855 149.725C54.0178 143.625 105.851 131.862 113.72 131.598C126.701 137.078 140.14 137.55 146.758 137.372C147.94 141.38 151.833 157.146 141.472 161.381Z" fill="#3F4D79"/>
<path d="M107.436 109.99C93.9319 112.684 61.49 111.53 47.8893 108.795C47.1516 109.366 46.3764 109.886 45.5689 110.353C43.7931 111.374 40.3737 112.199 39.5628 112.153C38.7518 112.108 33.7756 111.344 33.7756 111.344C33.7756 111.344 33.5981 110.781 34.3261 110.039C35.0542 109.297 40.3915 109.887 38.4401 108.262C37.5719 107.536 33.2488 109.17 31.3684 110.983C29.4881 112.795 28.6061 111.36 28.6061 111.36C28.6061 111.36 30.4056 108.004 31.0508 107.396C31.696 106.787 35.9835 104.209 38.888 103.816C40.9913 103.532 46.0504 103.923 48.7279 104.568C58.6507 102.211 77.6892 99.2064 91.2445 99.315C93.046 91.8129 95.2342 82.6288 95.8162 79.9123L105.453 86.2298L107.436 109.99Z" fill="#FFC0B7"/>
<path d="M95.8162 79.9123L95.2085 82.6071C95.2085 82.6071 97.7045 88.9345 105.761 91.0232L105.453 86.2259L95.8162 79.9123Z" fill="#FAB6AD"/>
<path d="M154.508 96.7742C154.508 96.7742 153.788 96.7288 152.575 96.6044C151.194 106.809 149.978 115.381 149.978 117.263C149.978 122.319 150.965 137.125 150.965 137.125C150.965 137.125 124.355 140.112 104.06 126.388C104.06 126.388 108.764 120.052 106.323 100.089C104.701 86.8082 105.453 86.2258 105.453 86.2258C105.453 86.2258 100.481 83.6317 93.4287 78.0427C93.4287 78.0427 97.0888 59.939 102.927 56.3873C108.766 52.8357 117.826 51.1793 123.842 48.9129C129.858 46.6465 139.004 44.2932 139.004 44.2932C141.444 46.2971 153.033 51.9651 155.907 55.3647C160.004 59.1217 165.619 74.0212 154.508 96.7742Z" fill="#CEEFF7"/>
<path d="M131.113 90.8199C131.113 90.8199 133.601 86.7313 136.602 71.8258" stroke="#84D7EC" stroke-width="5" stroke-miterlimit="10"/>
<path d="M105.232 85.8488C104.948 82.2438 105.331 75.4979 105.796 71.7488" stroke="#84D7EC" stroke-width="5" stroke-miterlimit="10"/>
<path d="M152.571 96.6064C152.571 96.6064 142.025 123.274 137.25 123.717C121.698 125.156 95.7078 110.337 90.0923 110.163L87.6298 110.085C86.2487 110.896 84.4926 111.587 83.0068 111.151C80.0116 110.274 77.6123 108.108 75.6274 109.038C73.6424 109.968 71.3516 111.753 70.0928 111.605C67.4587 111.287 65.9394 109.887 65.9394 109.887C65.9394 109.887 67.5791 108.098 69.2345 106.399C68.0605 106.859 66.2748 108.122 65.3613 108.556C63.9801 109.21 63.2698 108.041 63.2698 108.041C63.2698 108.041 66.3498 105.319 67.4133 104.673C68.4413 104.051 71.326 103.398 72.7822 103.366C74.5441 103.129 84.2085 101.809 89.1886 102.334C94.8988 102.122 106.355 102.531 126.536 106.328L132.319 91.4853C132.319 91.4853 141.101 95.3923 152.571 96.6064Z" fill="#FFCFC9"/>
<path d="M152.571 96.6063C152.571 96.6063 151.618 99.0169 150.154 102.401C145.357 100.983 137.581 97.9725 132.001 92.2966L132.319 91.4792C132.319 91.4792 141.103 95.3902 152.571 96.6063Z" fill="#FAB6AD"/>
<path d="M128.455 26.5074C128.455 26.5074 129.245 37.7605 138.998 44.2932C138.998 44.2932 133.858 55.5463 122.007 56.3242C110.157 57.102 119.093 50.4429 119.093 50.4429C119.093 50.4429 116.001 40.2066 115.476 37.7664L128.455 26.5074Z" fill="#FFCFC9"/>
<path d="M128.42 32.3511C127.828 37.4979 123.29 44.8756 117.661 45.6317C116.777 42.621 115.758 39.0733 115.478 37.7664L127.8 27.072L128.183 27.834C128.183 27.834 128.546 31.2652 128.42 32.3511Z" fill="#FAB6AD"/>
<path d="M127.528 27.3129C127.528 27.3129 127.712 30.8408 127.238 31.826C125.058 36.3667 118.221 41.5787 112.905 41.5787C108.791 41.5787 103.971 29.0364 103.537 24.4147C103.103 19.793 103.711 12.4706 114.863 11.6C126.015 10.7293 126.8 22.322 126.8 22.322L127.528 27.3129Z" fill="#FFCFC9"/>
<path d="M94.9975 19.7081C94.9975 19.7081 92.9237 15.5859 96.3905 12.5594C100.481 8.98409 104.23 10.6405 106.325 8.37405C108.421 6.10764 112.799 1.26683 119.308 2.09403C125.145 2.83634 126.847 6.89141 126.847 6.89141C126.847 6.89141 130.458 5.36928 133.594 9.45791C136.729 13.5465 129.156 30.5822 129.156 30.5822C129.156 30.5822 127.118 23.7948 126.8 22.3338C126.088 19.0625 119.655 19.8345 120.178 13.4399C120.178 13.4399 118.436 17.799 111.814 17.7161C109.841 17.6924 107.292 17.1515 104.76 16.7764C103.36 19.258 103.322 22.166 103.537 24.4245C103.537 24.4147 97.6158 24.3239 94.9975 19.7081Z" fill="#FE7523"/>
<path d="M126.668 6.89143C126.668 6.89143 129.592 4.10974 132.696 6.76903" stroke="#FE7523" stroke-width="3" stroke-miterlimit="10"/>
<path d="M120.178 13.0708C120.178 13.0708 118.965 18.9402 112.353 19.3232" stroke="#FE7523" stroke-width="3" stroke-miterlimit="10"/>
<path d="M128.552 20.4662L126.449 4.57564C126.379 4.04671 126.11 3.56439 125.697 3.22746C125.283 2.89054 124.757 2.72448 124.225 2.7633" stroke="#3F4D79" stroke-width="5" stroke-miterlimit="10" stroke-linecap="round"/>
<path d="M130.302 31.9917C130.867 34.7714 135.78 42.3742 127.238 56.8828C118.697 71.3914 129.803 75.713 124.186 85.6513C118.568 95.5895 106.39 95.0447 107.02 111.676C107.434 122.619 97.6276 124.099 98.1939 111.676" stroke="#3F4D79" stroke-width="5" stroke-miterlimit="10" stroke-linecap="round"/>
<path d="M112.404 96.7761C115.336 94.3813 118.302 80.8204 113.598 73.1051C108.894 65.3898 104.297 54.9895 111.23 41.8885" stroke="#3F4D79" stroke-width="5" stroke-miterlimit="10" stroke-linecap="round"/>
<path d="M130.435 20.1888L126.287 20.8157C125.025 21.0064 124.157 22.1845 124.347 23.4469L125.397 30.4022C125.588 31.6647 126.765 32.5335 128.027 32.3428L132.175 31.7159C133.437 31.5252 134.305 30.3472 134.114 29.0847L133.064 22.1294C132.874 20.867 131.696 19.9981 130.435 20.1888Z" fill="white" stroke="#ECBE02" stroke-width="6" stroke-miterlimit="10"/>
<path d="M7.52734 115.646H113.701C114.829 115.646 115.745 116.957 115.745 118.576V118.844C115.745 120.461 114.829 121.772 113.701 121.772H33.7698" fill="white"/>
<path d="M8.71112 115.251H113.7C114.829 115.251 115.745 116.562 115.745 118.181V118.449C115.745 120.066 114.829 121.377 113.7 121.377H34.1643" stroke="#3CBFD4" stroke-width="5" stroke-miterlimit="10" stroke-linecap="round"/>
<path d="M108.71 246.983L88.5945 121.574H95.5201L115.439 246.786L108.71 246.983Z" fill="white"/>
<path d="M96.6902 127.943L89.22 125.154L88.5925 121.574H95.5221L96.6902 127.943Z" fill="#CEEFF7"/>
<path d="M108.316 246.194L88.5945 121.574H95.5201L115.044 245.996" stroke="#3CBFD4" stroke-width="7" stroke-miterlimit="10" stroke-linecap="round"/>
<path d="M83.3343 110.088H23.5825C22.7907 110.089 22.0179 109.846 21.3686 109.392C20.7193 108.939 20.2248 108.297 19.952 107.553L6.18163 70.0056C6.00944 69.5399 5.95238 69.0395 6.01533 68.547C6.07829 68.0546 6.25938 67.5846 6.54315 67.1773C6.82693 66.77 7.20497 66.4375 7.64502 66.208C8.08507 65.9786 8.57406 65.8591 9.07027 65.8597H69.6113C70.5048 65.8605 71.3764 66.1361 72.1081 66.6492C72.8398 67.1623 73.3961 67.8881 73.7016 68.7282L86.9649 104.888C87.1788 105.473 87.2487 106.101 87.1684 106.718C87.0881 107.335 86.8601 107.924 86.5038 108.435C86.1474 108.945 85.6732 109.362 85.1214 109.65C84.5696 109.938 83.9566 110.088 83.3343 110.088Z" fill="white" stroke="#FFB000" stroke-width="5" stroke-miterlimit="10"/>
<path d="M80.7348 110.088H22.9916C22.2167 110.08 21.4633 109.832 20.8351 109.379C20.2068 108.925 19.7346 108.287 19.4834 107.553L6.17676 70.0056C5.46446 67.9978 6.90089 65.8597 8.96871 65.8597H67.4735C68.346 65.8694 69.194 66.1495 69.9007 66.6614C70.6075 67.1734 71.1382 67.8921 71.4197 68.7184L84.245 104.88C85.1368 107.423 83.3314 110.088 80.7348 110.088Z" fill="white" stroke="#FFB000" stroke-width="5" stroke-miterlimit="10"/>
<path d="M108.835 110.088H22.8683C21.7709 110.088 20.8813 110.978 20.8813 112.076V112.179C20.8813 113.277 21.7709 114.167 22.8683 114.167H108.835C109.932 114.167 110.822 113.277 110.822 112.179V112.076C110.822 110.978 109.932 110.088 108.835 110.088Z" fill="white" stroke="#FFB000" stroke-width="5" stroke-miterlimit="10"/>
</svg>
