<svg width="272" height="401" viewBox="0 0 272 401" fill="none" xmlns="http://www.w3.org/2000/svg">
<path d="M76.8699 39.4668C76.8699 39.4668 64.9714 41.3716 57.8323 32.9587C57.8323 32.9587 63.0676 28.8316 74.3315 34.546L76.8699 39.4668Z" fill="#6C63FF"/>
<path d="M78.1391 39.6538C78.1391 39.6538 85.7315 30.2544 82.0089 19.897C82.0089 19.897 75.8217 22.3744 75.1475 34.9938L78.1391 39.6538Z" fill="#6C63FF"/>
<path d="M84.9382 55.0228C84.9382 55.0228 80.1788 63.7532 61.1413 51.5307C61.1413 51.5307 63.6796 45.6575 72.0879 46.1337C80.4961 46.6099 82.7455 50.4195 84.9382 55.0228Z" fill="#6C63FF"/>
<path d="M86.1904 55.652C86.1904 55.652 96.0661 56.7858 97.0237 34.1662C97.0237 34.1662 90.7628 32.8622 86.315 40.0223C81.8673 47.1823 83.7087 51.1847 86.1904 55.652Z" fill="#6C63FF"/>
<path d="M91.947 73.6911C91.947 73.6911 86.3944 89.094 66.2406 78.1414C66.2406 78.1414 70.8414 64.0083 89.8846 68.4529L91.947 73.6911Z" fill="#6C63FF"/>
<path d="M98.134 96.7133C98.134 96.7133 87.6634 112.269 69.0961 97.8471C69.0961 97.8471 75.6005 83.2435 96.5476 91.1803L98.134 96.7133Z" fill="#6C63FF"/>
<path d="M100.355 118.619C100.355 118.619 88.1394 132.905 69.7591 118.619C69.7591 118.619 81.346 106.079 100.355 114.968V118.619Z" fill="#6C63FF"/>
<path d="M102.259 139.889C102.259 139.889 89.8846 154.816 72.2692 140.683C72.2692 140.683 86.2357 127.508 102.259 136.397V139.889Z" fill="#6C63FF"/>
<path d="M101.148 158.784C101.148 158.784 88.1168 177.991 71.6345 164.975C71.6345 164.975 85.6011 148.461 101.148 155.133V158.784Z" fill="#6C63FF"/>
<path d="M98.134 180.848C98.134 180.848 84.3318 199.896 68.3028 185.293C68.3028 185.293 84.6491 168.784 98.134 177.356V180.848Z" fill="#6C63FF"/>
<path d="M93.5278 200.571C93.5278 200.571 77.1929 218.469 62.9317 211.342C62.9317 211.342 79.9635 192.334 94.2417 195.826L93.5278 200.571Z" fill="#6C63FF"/>
<path d="M87.8221 219.262C87.8221 219.262 68.9375 241.173 57.9909 233.871C57.9909 233.871 71.8838 216.864 89.1536 215.135L87.8221 219.262Z" fill="#6C63FF"/>
<path d="M79.5781 240.952C79.5781 240.952 63.0675 258.855 51.0104 254.411C51.0104 254.411 65.1299 235.833 81.7935 235.357L79.5781 240.952Z" fill="#6C63FF"/>
<path d="M72.1103 261.236C72.1103 261.236 53.866 278.379 45.9337 275.364C45.9337 275.364 59.1013 256.315 72.9036 257.427L72.1103 261.236Z" fill="#6C63FF"/>
<path d="M64.8127 279.967C64.8127 279.967 49.1067 300.444 40.5398 298.856C40.5398 298.856 50.0586 280.602 64.8127 277.881V279.967Z" fill="#6C63FF"/>
<path d="M56.8973 305.206C56.8973 305.206 43.01 320.909 35.514 320.869C35.514 320.869 46.4719 299.894 57.4639 300.086L56.8973 305.206Z" fill="#6C63FF"/>
<path d="M52.2003 322.037L38.7947 354.737C38.7947 354.737 38.1204 325.178 53.9114 315.971L52.2003 322.037Z" fill="#6C63FF"/>
<path d="M46.7609 358.098C46.7609 358.098 44.5399 385.401 45.9677 387.623C45.9677 387.623 36.3753 364.947 46.8516 346.035L46.7609 358.098Z" fill="#6C63FF"/>
<path d="M92.4625 74.0595C92.4625 74.0595 106.372 82.6822 115.37 61.5876C115.37 61.5876 102.995 53.3674 90.8307 68.6796L92.4625 74.0595Z" fill="#6C63FF"/>
<path d="M98.576 97.5921C98.576 97.5921 115.631 105.376 123.908 83.3513C123.908 83.3513 110.729 74.2807 97.0235 92.025L98.576 97.5921Z" fill="#6C63FF"/>
<path d="M101.148 117.309C101.148 117.309 113.364 131.595 131.744 117.309C131.744 117.309 120.163 104.769 101.148 113.658V117.309Z" fill="#6C63FF"/>
<path d="M102.672 139.889C102.672 139.889 115.053 154.816 132.662 140.683C132.662 140.683 118.701 127.508 102.672 136.397V139.889Z" fill="#6C63FF"/>
<path d="M101.148 158.24C101.148 158.24 109.829 179.754 128.696 170.502C128.696 170.502 118.498 151.42 101.913 154.668L101.148 158.24Z" fill="#6C63FF"/>
<path d="M97.0406 180.956C97.0406 180.956 105.664 202.844 124.804 192.697C124.804 192.697 113.087 172.634 97.8905 177.572L97.0406 180.956Z" fill="#6C63FF"/>
<path d="M91.6918 200.458C91.6918 200.458 95.0914 224.461 110.928 226.609C110.928 226.609 107.568 201.302 93.8052 196.138L91.6918 200.458Z" fill="#6C63FF"/>
<path d="M87.4141 219.222C87.4141 219.222 88.7456 248.135 101.862 249.138C101.862 249.138 101.42 227.199 88.893 215.124L87.4141 219.222Z" fill="#6C63FF"/>
<path d="M78.2126 241.78C78.2126 241.78 82.1277 265.817 94.6438 268.759C94.6438 268.759 93.0913 245.476 79.4534 235.878L78.2126 241.78Z" fill="#6C63FF"/>
<path d="M70.6259 261.06C70.6259 261.06 70.7619 286.106 78.4109 289.786C78.4109 289.786 83.1533 267.109 72.8413 257.863L70.6259 261.06Z" fill="#6C63FF"/>
<path d="M64.229 280.262C64.229 280.262 65.3055 306.056 73.2209 309.69C73.2209 309.69 75.9348 289.281 65.4188 278.578L64.229 280.262Z" fill="#6C63FF"/>
<path d="M55.7868 303.165C55.7868 303.165 55.8378 324.14 61.4925 329.061C61.4925 329.061 67.1131 306.079 58.7388 298.947L55.7868 303.165Z" fill="#6C63FF"/>
<path d="M52.8688 323.069L58.3648 357.985C58.3648 357.985 65.8438 329.373 52.6082 316.771L52.8688 323.069Z" fill="#6C63FF"/>
<path d="M51.7923 357.77C51.7923 357.77 65.9175 381.234 65.6229 383.847C65.6229 383.847 64.1271 359.244 46.3587 346.998L51.7923 357.77Z" fill="#6C63FF"/>
<path d="M50.1378 364.697C50.1378 364.697 63.4641 398.037 69.4927 400.736C69.4927 400.736 50.4551 391.053 49.0273 365.65L50.1378 364.697Z" fill="#6C63FF"/>
<path d="M57.5377 299.905L58.45 300.183C47.203 336.879 44.3927 360.275 50.5459 366.137L49.8887 366.829C43.3729 360.644 46.0132 337.52 57.5377 299.905Z" fill="#444053"/>
<path d="M88.5077 214.007L89.8506 214.483C88.6607 217.845 87.3746 221.258 86.0261 224.625C74.2862 253.9 64.2915 281.129 57.8833 302.037L56.7104 302.604C63.13 281.656 72.9434 253.379 84.7002 224.07C86.0431 220.736 87.3236 217.335 88.5077 214.007Z" fill="#444053"/>
<path d="M60.1269 11.9999C60.3082 12.204 78.5413 32.7375 91.2443 67.8065C98.6932 88.3308 102.843 109.907 103.539 131.731C104.412 159.017 98.6893 189.482 88.8873 217.153L87.8221 215.906C109.823 153.795 101.08 100.568 89.4879 68.5095C76.9095 33.7636 58.8918 13.4456 58.7104 13.2471L60.1269 11.9999Z" fill="#444053"/>
<path d="M66.6485 280.948H66.8695C67.5861 280.948 68.167 280.366 68.167 279.649V268.617C68.167 267.9 67.5861 267.319 66.8695 267.319H66.6485C65.9319 267.319 65.351 267.9 65.351 268.617V279.649C65.351 280.366 65.9319 280.948 66.6485 280.948Z" fill="#3A3768"/>
<path d="M66.3934 255.992H66.9713C67.6879 255.992 68.2688 255.411 68.2688 254.694V233.571C68.2688 232.854 67.6879 232.273 66.9713 232.273H66.3934C65.6768 232.273 65.0959 232.854 65.0959 233.571V254.694C65.0959 255.411 65.6768 255.992 66.3934 255.992Z" fill="#3A3768"/>
<path d="M66.4956 223.973H66.9205C67.6371 223.973 68.218 223.392 68.218 222.675V201.348C68.218 200.631 67.6371 200.05 66.9205 200.05H66.4956C65.779 200.05 65.1981 200.631 65.1981 201.348V222.675C65.1981 223.392 65.779 223.973 66.4956 223.973Z" fill="#3A3768"/>
<path d="M19.3981 35.8683C19.3981 35.8683 12.0908 37.0381 7.70645 31.8714C7.70645 31.8714 10.9216 29.3368 17.8392 32.8463L19.3981 35.8683Z" fill="#6C63FF"/>
<path d="M20.1775 35.9831C20.1775 35.9831 24.8402 30.2106 22.5541 23.8498C22.5541 23.8498 18.7543 25.3712 18.3402 33.1212L20.1775 35.9831Z" fill="#6C63FF"/>
<path d="M24.3531 45.4217C24.3531 45.4217 21.4302 50.7834 9.73862 43.2771C9.73862 43.2771 11.2975 39.6702 16.4613 39.9626C21.6251 40.2551 23.0065 42.5947 24.3531 45.4217Z" fill="#6C63FF"/>
<path d="M25.1221 45.8081C25.1221 45.8081 31.1871 46.5045 31.7751 32.613C31.7751 32.613 27.9301 31.8122 25.1986 36.2094C22.4671 40.6066 23.598 43.0646 25.1221 45.8081Z" fill="#6C63FF"/>
<path d="M28.6575 56.8866C28.6575 56.8866 25.2474 66.346 12.8703 59.6196C12.8703 59.6196 15.6958 50.94 27.3909 53.6696L28.6575 56.8866Z" fill="#6C63FF"/>
<path d="M32.4572 71.0253C32.4572 71.0253 26.0268 80.5788 14.624 71.7216C14.624 71.7216 18.6186 62.753 31.4828 67.6272L32.4572 71.0253Z" fill="#6C63FF"/>
<path d="M33.8212 84.4781C33.8212 84.4781 26.319 93.2517 15.0311 84.4781C15.0311 84.4781 22.1469 76.7768 33.8212 82.2359V84.4781Z" fill="#6C63FF"/>
<path d="M34.9904 97.541C34.9904 97.541 27.3908 106.708 16.5726 98.0284C16.5726 98.0284 25.1499 89.9372 34.9904 95.3963V97.541Z" fill="#6C63FF"/>
<path d="M34.3083 109.145C34.3083 109.145 26.3052 120.941 16.1828 112.947C16.1828 112.947 24.7602 102.805 34.3083 106.903V109.145Z" fill="#6C63FF"/>
<path d="M32.4572 122.695C32.4572 122.695 23.9807 134.394 14.1368 125.425C14.1368 125.425 24.1756 115.287 32.4572 120.551V122.695Z" fill="#6C63FF"/>
<path d="M29.6282 134.808C29.6282 134.808 19.5964 145.799 10.8381 141.423C10.8381 141.423 21.2979 129.749 30.0667 131.894L29.6282 134.808Z" fill="#6C63FF"/>
<path d="M26.1242 146.287C26.1242 146.287 14.5265 159.743 7.80383 155.259C7.80383 155.259 16.3359 144.814 26.9419 143.752L26.1242 146.287Z" fill="#6C63FF"/>
<path d="M21.0612 159.607C21.0612 159.607 10.9215 170.602 3.51682 167.872C3.51682 167.872 12.1881 156.463 22.4218 156.171L21.0612 159.607Z" fill="#6C63FF"/>
<path d="M16.4751 172.064C16.4751 172.064 5.27066 182.593 0.399151 180.74C0.399151 180.74 8.48586 169.042 16.9623 169.725L16.4751 172.064Z" fill="#6C63FF"/>
<path d="M11.9934 183.567C11.9934 183.567 2.34782 196.143 -2.91341 195.168C-2.91341 195.168 2.9324 183.957 11.9934 182.286V183.567Z" fill="#6C63FF"/>
<path d="M7.13226 199.067C7.13226 199.067 -1.39637 208.711 -5.99994 208.687C-5.99994 208.687 0.729706 195.805 7.48022 195.924L7.13226 199.067Z" fill="#6C63FF"/>
<path d="M4.24761 209.404L-3.98523 229.486C-3.98523 229.486 -4.39931 211.333 5.29846 205.679L4.24761 209.404Z" fill="#6C63FF"/>
<path d="M0.907093 231.551C0.907093 231.551 -0.456923 248.318 0.419946 249.683C0.419946 249.683 -5.47108 235.756 0.962769 224.142L0.907093 231.551Z" fill="#6C63FF"/>
<path d="M28.974 57.1128C28.974 57.1128 37.5166 62.4083 43.0422 49.4534C43.0422 49.4534 35.4427 44.4051 27.9719 53.8088L28.974 57.1128Z" fill="#6C63FF"/>
<path d="M32.7285 71.5649C32.7285 71.5649 43.2022 76.3451 48.286 62.8192C48.286 62.8192 40.1923 57.2487 31.7751 68.146L32.7285 71.5649Z" fill="#6C63FF"/>
<path d="M34.3083 83.6738C34.3083 83.6738 41.8104 92.4474 53.0984 83.6738C53.0984 83.6738 45.986 75.9725 34.3083 81.4317V83.6738Z" fill="#6C63FF"/>
<path d="M35.2443 97.541C35.2443 97.541 42.8474 106.708 53.6621 98.0284C53.6621 98.0284 45.0882 89.9372 35.2443 95.3963V97.541Z" fill="#6C63FF"/>
<path d="M34.3084 108.811C34.3084 108.811 39.6392 122.023 51.2264 116.342C51.2264 116.342 44.9631 104.623 34.7781 106.617L34.3084 108.811Z" fill="#6C63FF"/>
<path d="M31.7855 122.762C31.7855 122.762 37.0816 136.204 48.8358 129.972C48.8358 129.972 41.6399 117.651 32.3075 120.683L31.7855 122.762Z" fill="#6C63FF"/>
<path d="M28.5008 134.738C28.5008 134.738 30.5886 149.479 40.3142 150.799C40.3142 150.799 38.2508 135.257 29.7987 132.085L28.5008 134.738Z" fill="#6C63FF"/>
<path d="M25.8736 146.262C25.8736 146.262 26.6913 164.018 34.7467 164.635C34.7467 164.635 34.4753 151.161 26.7818 143.745L25.8736 146.262Z" fill="#6C63FF"/>
<path d="M20.2226 160.115C20.2226 160.115 22.6271 174.877 30.3136 176.684C30.3136 176.684 29.3602 162.385 20.9847 156.491L20.2226 160.115Z" fill="#6C63FF"/>
<path d="M15.5635 171.956C15.5635 171.956 15.647 187.338 20.3445 189.597C20.3445 189.597 23.257 175.671 16.924 169.993L15.5635 171.956Z" fill="#6C63FF"/>
<path d="M11.6348 183.749C11.6348 183.749 12.296 199.59 17.157 201.821C17.157 201.821 18.8238 189.288 12.3656 182.714L11.6348 183.749Z" fill="#6C63FF"/>
<path d="M6.45023 197.814C6.45023 197.814 6.48155 210.696 9.95424 213.718C9.95424 213.718 13.4061 199.604 8.26314 195.224L6.45023 197.814Z" fill="#6C63FF"/>
<path d="M4.65816 210.038L8.03342 231.481C8.03342 231.481 12.6266 213.909 4.4981 206.17L4.65816 210.038Z" fill="#6C63FF"/>
<path d="M3.99704 231.349C3.99704 231.349 12.6718 245.759 12.4909 247.364C12.4909 247.364 11.5722 232.254 0.660053 224.734L3.99704 231.349Z" fill="#6C63FF"/>
<path d="M2.98095 235.603C2.98095 235.603 11.1651 256.078 14.8674 257.736C14.8674 257.736 3.17582 251.789 2.29895 236.188L2.98095 235.603Z" fill="#6C63FF"/>
<path d="M7.5256 195.812L8.08582 195.983C1.17871 218.519 -0.547196 232.888 3.2317 236.487L2.82807 236.912C-1.17352 233.114 0.447992 218.912 7.5256 195.812Z" fill="#444053"/>
<path d="M26.5453 143.059L27.37 143.352C26.6393 145.416 25.8494 147.512 25.0212 149.58C17.8114 167.559 11.6733 184.281 7.73781 197.121L7.01752 197.469C10.96 184.605 16.9867 167.239 24.207 149.239C25.0317 147.192 25.8181 145.103 26.5453 143.059Z" fill="#444053"/>
<path d="M9.11565 18.9999C9.227 19.1253 20.4245 31.7356 28.2259 53.2726C32.8005 65.8773 35.349 79.1278 35.7767 92.531C36.3126 109.288 32.7981 127.998 26.7783 144.991L26.1242 144.226C39.6356 106.081 34.2665 73.3927 27.1472 53.7043C19.4224 32.3657 8.35708 19.8877 8.24574 19.7659L9.11565 18.9999Z" fill="#444053"/>
<path d="M13.1208 184.17H13.2565C13.6966 184.17 14.0533 183.813 14.0533 183.373L14.0533 176.597C14.0533 176.157 13.6966 175.8 13.2565 175.8H13.1208C12.6807 175.8 12.324 176.157 12.324 176.597V183.373C12.324 183.813 12.6807 184.17 13.1208 184.17Z" fill="#3A3768"/>
<path d="M12.9641 168.844H13.319C13.7591 168.844 14.1158 168.487 14.1158 168.047L14.1158 155.074C14.1158 154.634 13.7591 154.277 13.319 154.277H12.9641C12.524 154.277 12.1672 154.634 12.1672 155.074L12.1672 168.047C12.1672 168.487 12.524 168.844 12.9641 168.844Z" fill="#3A3768"/>
<path d="M13.0269 149.18H13.2879C13.728 149.18 14.0847 148.823 14.0847 148.383L14.0847 135.285C14.0847 134.844 13.728 134.488 13.2879 134.488H13.0269C12.5868 134.488 12.2301 134.844 12.2301 135.285L12.2301 148.383C12.2301 148.823 12.5868 149.18 13.0269 149.18Z" fill="#3A3768"/>
<path d="M82.2122 38.2749C82.2122 38.2749 76.6995 43.3647 69.1724 38.99C69.1724 38.99 70.1458 34.1937 78.684 35.2195L82.2122 38.2749Z" fill="#6C63FF"/>
<path d="M82.9727 38.0353C82.9727 38.0353 82.8768 28.4255 76.3156 21.5029C76.3156 21.5029 74.1055 25.3055 79.3175 35.3201L82.9727 38.0353Z" fill="#6C63FF"/>
<path d="M93.3896 47.9206C93.3896 47.9206 94.703 56.1511 79.14 52.4238C79.14 52.4238 77.9021 47.0882 82.6025 44.9081C87.3028 42.7279 90.1861 45.0072 93.3896 47.9206Z" fill="#6C63FF"/>
<path d="M94.3361 48.0299C94.3361 48.0299 100.11 45.9159 90.634 28.0413C90.634 28.0413 86.7149 28.9267 87.5013 35.8419C88.2877 42.757 91.0383 45.3099 94.3361 48.0299Z" fill="#6C63FF"/>
<path d="M105.375 60.3072C105.375 60.3072 109.211 73.9654 93.6131 71.5639C93.6131 71.5639 89.8295 59.1816 101.961 56.8607L105.375 60.3072Z" fill="#6C63FF"/>
<path d="M118.845 76.3277C118.845 76.3277 120.122 91.5966 103.839 86.0167C103.839 86.0167 100.864 72.6912 115.554 72.5076L118.845 76.3277Z" fill="#6C63FF"/>
<path d="M129.703 92.6828C129.703 92.6828 129.488 107.494 113.365 101.963C113.365 101.963 114.015 88.7001 128.091 89.8446L129.703 92.6828Z" fill="#6C63FF"/>
<path d="M140.112 108.641C140.112 108.641 140.095 123.998 124.448 118.354C124.448 118.354 126.088 103.876 138.57 105.926L140.112 108.641Z" fill="#6C63FF"/>
<path d="M147.862 123.666C147.862 123.666 149.384 142.55 134.835 137.431C134.835 137.431 135.001 120.357 146.25 120.828L147.862 123.666Z" fill="#6C63FF"/>
<path d="M155.995 141.733C155.995 141.733 157.035 160.727 142.027 154.236C142.027 154.236 143.467 136.445 154.453 139.018L155.995 141.733Z" fill="#6C63FF"/>
<path d="M162.244 158.462C162.244 158.462 161.423 177.33 150.661 176.116C150.661 176.116 151.363 156.173 160.53 154.557L162.244 158.462Z" fill="#6C63FF"/>
<path d="M167.45 174.723C167.45 174.723 167.04 197.484 157.97 195.128C157.97 195.128 157.88 177.693 166.338 171.111L167.45 174.723Z" fill="#6C63FF"/>
<path d="M172.625 194.085C172.625 194.085 171.713 213.01 163.312 213.212C163.312 213.212 162.649 194.487 171.337 189.063L172.625 194.085Z" fill="#6C63FF"/>
<path d="M177.593 212.118C177.593 212.118 175.42 230.979 169.853 231.04C169.853 231.04 168.474 212.239 176.335 208.916L177.593 212.118Z" fill="#6C63FF"/>
<path d="M181.967 228.893C181.967 228.893 182.621 249.575 177.345 250.939C177.345 250.939 174.368 233.861 181.046 227.271L181.967 228.893Z" fill="#6C63FF"/>
<path d="M188.884 250.914C188.884 250.914 188.402 267.333 184.382 269.576C184.382 269.576 180.971 249.946 186.926 246.762L188.884 250.914Z" fill="#6C63FF"/>
<path d="M193.808 265.423L201.088 294.909C201.088 294.909 187.676 272.135 192.043 260.188L193.808 265.423Z" fill="#6C63FF"/>
<path d="M206.826 295.106C206.826 295.106 217.696 317.004 219.439 318.299C219.439 318.299 204.304 303.58 201.548 285.7L206.826 295.106Z" fill="#6C63FF"/>
<path d="M105.813 60.4372C105.813 60.4372 117.049 62.9213 112.539 43.7936C112.539 43.7936 102.301 41.1567 102.566 56.7499L105.813 60.4372Z" fill="#6C63FF"/>
<path d="M119.469 76.8768C119.469 76.8768 132.013 77.7548 126.708 58.1226C126.708 58.1226 115.666 55.0686 116.182 73.0199L119.469 76.8768Z" fill="#6C63FF"/>
<path d="M129.548 91.4242C129.548 91.4242 142.38 98.8248 145.887 82.144C145.887 82.144 134.165 75.9083 127.936 88.586L129.548 91.4242Z" fill="#6C63FF"/>
<path d="M140.333 108.515C140.333 108.515 153.535 116.364 156.698 100.036C156.698 100.036 143.425 94.0284 138.791 105.8L140.333 108.515Z" fill="#6C63FF"/>
<path d="M147.622 123.243C147.622 123.243 161.756 137.335 167.747 124.42C167.747 124.42 153.875 112.679 146.453 120.235L147.622 123.243Z" fill="#6C63FF"/>
<path d="M155.458 142.148C155.458 142.148 169.728 156.548 175.468 142.854C175.468 142.854 160.352 130.812 154.418 139.259L155.458 142.148Z" fill="#6C63FF"/>
<path d="M161.213 158.931C161.213 158.931 173.627 176.559 183.032 173.426C183.032 173.426 170.064 154.772 160.434 154.932L161.213 158.931Z" fill="#6C63FF"/>
<path d="M167.214 174.816C167.214 174.816 180.692 196.888 188.139 193.689C188.139 193.689 178.216 176.768 166.194 171.181L167.214 174.816Z" fill="#6C63FF"/>
<path d="M172.261 195.142C172.261 195.142 184.965 212.641 192.948 211.132C192.948 211.132 181.838 193.503 170.318 190.178L172.261 195.142Z" fill="#6C63FF"/>
<path d="M176.723 212.432C176.723 212.432 187.855 231.861 193.564 232.401C193.564 232.401 186.084 213.334 176.494 209.274L176.723 212.432Z" fill="#6C63FF"/>
<path d="M181.785 229.299C181.785 229.299 193.75 249.024 199.581 249.449C199.581 249.449 192.019 232.76 181.677 227.629L181.785 229.299Z" fill="#6C63FF"/>
<path d="M187.39 249.664C187.39 249.664 196.679 265.955 201.871 268.065C201.871 268.065 194.725 248.494 187.104 245.49L187.39 249.664Z" fill="#6C63FF"/>
<path d="M194.62 266.022L212.972 291.498C212.972 291.498 204.333 266.987 191.7 261.205L194.62 266.022Z" fill="#6C63FF"/>
<path d="M209.368 293.324C209.368 293.324 227.271 307.281 228.268 309.402C228.268 309.402 216.605 290.729 201.71 286.599L209.368 293.324Z" fill="#6C63FF"/>
<path d="M211.543 299.212C211.543 299.212 233.381 321.087 237.792 321.357C237.792 321.357 223.35 319.604 211.371 300.289L211.543 299.212Z" fill="#6C63FF"/>
<path d="M186.886 246.599L187.495 246.538C197.693 278.476 206.523 297.517 212.397 300.207L212.351 300.944C206.141 298.113 197.34 279.335 186.886 246.599Z" fill="#444053"/>
<path d="M165.495 170.429L166.423 170.392C167.272 173.367 168.092 176.41 168.859 179.437C175.516 205.755 182.202 229.954 188.011 248.151L187.635 248.947C181.814 230.716 174.569 205.757 167.905 179.407C167.151 176.408 166.332 173.376 165.495 170.429Z" fill="#444053"/>
<path d="M61.1435 22.0011C61.3304 22.1047 80.1335 32.5368 102.402 55.9458C115.442 69.6417 127.185 85.1558 137.193 101.911C149.707 122.857 160.104 148.276 167.087 172.76L165.968 172.114C150.291 117.157 122.12 78.4308 101.774 57.025C79.7152 33.8294 61.1222 23.4995 60.9378 23.4002L61.1435 22.0011Z" fill="#444053"/>
<path d="M183.38 229.098L183.498 229.031C183.881 228.814 183.934 228.186 183.618 227.628L178.747 219.052C178.43 218.495 177.863 218.219 177.48 218.437L177.362 218.504C176.98 218.721 176.926 219.349 177.243 219.906L182.114 228.483C182.431 229.04 182.998 229.316 183.38 229.098Z" fill="#3A3768"/>
<path d="M172.225 209.776L172.533 209.6C172.916 209.383 172.97 208.755 172.653 208.198L163.326 191.777C163.01 191.22 162.443 190.944 162.06 191.161L161.751 191.337C161.369 191.554 161.315 192.182 161.632 192.739L170.959 209.16C171.275 209.717 171.842 209.993 172.225 209.776Z" fill="#3A3768"/>
<path d="M158.141 184.854L158.368 184.725C158.751 184.507 158.805 183.879 158.488 183.322L149.071 166.743C148.754 166.185 148.187 165.91 147.805 166.127L147.578 166.256C147.195 166.473 147.142 167.101 147.458 167.659L156.875 184.238C157.192 184.795 157.759 185.071 158.141 184.854Z" fill="#3A3768"/>
</svg>
