<svg width="523" height="479" viewBox="0 0 523 479" fill="none" xmlns="http://www.w3.org/2000/svg">
<g clip-path="url(#clip0)">
<path d="M44.717 132.339C69.4135 132.339 89.434 112.304 89.434 87.591C89.434 62.8777 69.4135 42.8435 44.717 42.8435C20.0205 42.8435 0 62.8777 0 87.591C0 112.304 20.0205 132.339 44.717 132.339Z" fill="#6C63FF"/>
<path d="M518.793 375.474C518.59 383.091 517.315 390.642 515.006 397.903C514.953 398.071 514.898 398.237 514.843 398.405H500.708C500.723 398.255 500.738 398.086 500.753 397.903C501.696 387.061 507.129 321.074 500.633 309.789C501.201 310.705 519.889 341.025 518.793 375.474Z" fill="#D08787"/>
<path d="M517.733 397.903C517.615 398.071 517.492 398.24 517.366 398.406H506.763C506.843 398.262 506.936 398.094 507.044 397.903C508.796 394.739 513.981 385.28 518.793 375.474C523.966 364.937 528.711 353.999 528.311 350.041C528.434 350.934 532.013 378.15 517.733 397.903Z" fill="#D08787"/>
<path d="M557 397.441H150.564V398.772H557V397.441Z" fill="#D08787"/>
<path d="M410.721 438.986L412.696 422.686L468.472 408.362L462.055 389.099C466.525 376.269 474.372 369.98 488.709 376.256L513.371 391.587C515.767 393.077 517.72 395.184 519.024 397.688C520.328 400.191 520.936 403 520.783 405.819C520.633 408.65 519.721 411.387 518.145 413.742C516.568 416.097 514.385 417.982 511.827 419.199C484.219 432.295 449.031 437.306 410.721 438.986Z" fill="#FFB8B8"/>
<path d="M414.176 443.925L396.901 441.455L380.742 444.755C379.752 444.957 378.73 444.942 377.747 444.71C376.763 444.479 375.842 444.036 375.046 443.413C374.25 442.79 373.599 442.001 373.138 441.102C372.676 440.202 372.416 439.213 372.373 438.203C372.326 437.073 372.554 435.949 373.037 434.927C373.52 433.904 374.244 433.015 375.147 432.334L400.467 413.244C402.639 411.607 405.322 410.798 408.036 410.962C410.75 411.127 413.317 412.253 415.275 414.141L421.58 420.216C417.069 423.017 413.714 427.22 411.708 433.059C416.045 435.444 416.867 439.066 414.176 443.925Z" fill="#2F2E41"/>
<path d="M430.676 272.796C439.5 272.796 446.653 265.638 446.653 256.808C446.653 247.979 439.5 240.821 430.676 240.821C421.853 240.821 414.699 247.979 414.699 256.808C414.699 265.638 421.853 272.796 430.676 272.796Z" fill="#FFB8B8"/>
<path d="M455.638 288.337L419.853 303.402C422.761 288.789 424.211 275.477 419.853 267.345L442.805 264.628C441.666 270.878 447.473 279.247 455.638 288.337Z" fill="#FFB8B8"/>
<path d="M394.926 438.492L381.599 437.504C373.435 403.435 369.255 371.233 371.079 341.845C371.337 337.555 373.245 333.531 376.404 330.618C379.563 327.706 383.726 326.131 388.02 326.224C392.146 326.317 396.089 327.947 399.079 330.794L416.313 347.206C423.999 354.468 429.965 363.357 433.775 373.223C438.656 386.015 436.904 393.187 425.252 391.969C417.971 391.157 411.274 387.594 406.53 382.008L393.939 367.366L394.926 438.492Z" fill="#FFB8B8"/>
<path d="M384.606 478.976C382.859 478.862 381.162 478.347 379.646 477.471C378.13 476.595 376.836 475.381 375.864 473.924C374.892 472.467 374.269 470.806 374.042 469.069C373.815 467.332 373.991 465.567 374.556 463.909L377.157 456.273L379.131 437.01C382.173 430.8 386.48 431.729 391.471 436.516C394.644 436.204 395.325 433.029 394.926 428.613L404.933 442.092C405.789 443.246 406.32 444.608 406.472 446.037C406.623 447.466 406.389 448.91 405.793 450.217L395.722 472.323C394.763 474.43 393.185 476.194 391.2 477.382C389.214 478.571 386.914 479.126 384.606 478.976Z" fill="#2F2E41"/>
<path d="M510.674 389.84C492.411 400.212 486.687 400.513 468.472 407.868L452.677 398.977C434.127 405.841 421.114 396.432 407.019 382.431C416.243 367.057 412.164 347.079 417.878 347.361L486.241 368.847L489.203 376.256L510.674 389.84Z" fill="#2F2E41"/>
<path d="M488.709 373.787C464.571 384.242 438.581 373.173 416.398 348.843L401.709 289.481C401.535 288.827 401.497 288.145 401.597 287.476C401.698 286.807 401.934 286.165 402.291 285.591C402.648 285.016 403.119 284.521 403.675 284.136C404.231 283.751 404.86 283.484 405.523 283.351L422.567 279.94L430.959 293.276L447.741 278.458L465.563 284.289C467.933 285.064 470.048 286.469 471.682 288.353C473.315 290.238 474.407 292.531 474.839 294.988L488.709 373.787Z" fill="#6C63FF"/>
<path opacity="0.2" d="M450.368 424.111C449.066 423.614 447.901 422.812 446.972 421.772C446.043 420.732 445.377 419.484 445.03 418.133C444.682 416.782 444.664 415.368 444.976 414.008C445.288 412.648 445.921 411.383 446.823 410.319L458.106 397.002L466.004 401.447L461.937 418.038C461.643 419.238 461.097 420.363 460.335 421.336C459.574 422.31 458.615 423.11 457.521 423.684C456.427 424.258 455.224 424.593 453.99 424.667C452.757 424.741 451.523 424.551 450.368 424.111Z" fill="black"/>
<path d="M450.368 422.135C449.066 421.639 447.901 420.837 446.972 419.797C446.043 418.756 445.377 417.508 445.03 416.157C444.682 414.806 444.664 413.392 444.976 412.032C445.288 410.673 445.921 409.408 446.823 408.344L458.106 395.026L466.004 399.471L461.937 416.062C461.643 417.263 461.097 418.387 460.335 419.36C459.574 420.334 458.615 421.134 457.521 421.708C456.427 422.283 455.224 422.618 453.99 422.691C452.757 422.765 451.523 422.575 450.368 422.135Z" fill="#FFB8B8"/>
<path d="M467.978 403.423L456.132 395.52L473.408 349.584L466.991 284.879L472.844 288.54C475.986 290.505 478.696 293.088 480.81 296.132C482.923 299.176 484.397 302.619 485.142 306.25L494.632 352.548C490.48 373.888 483.558 392.664 467.978 403.423Z" fill="#6C63FF"/>
<path opacity="0.2" d="M460.821 330.074L466.745 359.71L461.873 377.042L460.821 330.074Z" fill="black"/>
<path d="M415.051 255.437C415.051 255.437 405.845 225.285 433.983 231.609C438.348 232.59 442.118 235.129 445.118 238.449C445.387 238.74 445.716 238.968 446.082 239.118C446.448 239.267 446.842 239.335 447.237 239.316C451.732 239.316 454.509 255.39 445.519 262.458C445.519 262.458 447.353 252.946 444.019 249.705C443.419 249.157 442.918 248.51 442.535 247.793C440.365 243.413 433.07 241.975 428.039 242.348C425.47 242.538 425.245 247.019 422.402 246.393C415.932 244.969 413.867 252.469 415.051 255.437Z" fill="#2F2E41"/>
<path d="M443.373 300.19L443.187 301.555L442.037 309.979L440.154 323.774L439.683 327.228C439.647 327.492 439.517 327.733 439.316 327.908C439.116 328.083 438.859 328.18 438.593 328.18H426.036C425.771 328.18 425.514 328.084 425.314 327.909C425.114 327.735 424.983 327.494 424.947 327.231L424.467 323.774L422.552 309.979L421.382 301.549L421.194 300.193C421.172 300.037 421.184 299.878 421.229 299.727C421.274 299.576 421.35 299.437 421.454 299.318C421.557 299.2 421.684 299.105 421.827 299.039C421.97 298.974 422.126 298.94 422.283 298.94H442.283C442.44 298.94 442.596 298.974 442.738 299.039C442.881 299.104 443.009 299.199 443.112 299.317C443.215 299.436 443.292 299.575 443.337 299.725C443.382 299.876 443.394 300.034 443.373 300.19Z" fill="#D08787"/>
<path d="M423.608 295.286H441.023C441.168 295.286 441.311 295.314 441.444 295.37C441.578 295.425 441.699 295.506 441.801 295.608C441.903 295.71 441.984 295.832 442.039 295.965C442.095 296.099 442.123 296.242 442.123 296.386V297.84C442.123 298.132 442.007 298.412 441.801 298.618C441.595 298.825 441.315 298.941 441.023 298.941H423.608C423.316 298.941 423.037 298.825 422.83 298.618C422.624 298.412 422.508 298.132 422.508 297.84V296.386C422.508 296.242 422.537 296.099 422.592 295.965C422.647 295.832 422.728 295.71 422.83 295.608C422.933 295.506 423.054 295.425 423.187 295.37C423.321 295.314 423.464 295.286 423.608 295.286Z" fill="#3F3D56"/>
<path d="M444.946 300.768C436.551 301.685 428.081 301.685 419.685 300.768C419.541 300.768 419.398 300.74 419.264 300.684C419.131 300.629 419.01 300.548 418.908 300.446C418.805 300.344 418.724 300.222 418.669 300.089C418.614 299.955 418.585 299.812 418.585 299.668V298.214C418.585 298.069 418.614 297.926 418.669 297.793C418.724 297.659 418.805 297.538 418.908 297.436C419.01 297.333 419.131 297.252 419.264 297.197C419.398 297.142 419.541 297.113 419.685 297.113C428.074 298.145 436.558 298.145 444.946 297.113C445.238 297.113 445.518 297.229 445.724 297.436C445.93 297.642 446.046 297.922 446.046 298.214V299.668C446.046 299.96 445.93 300.239 445.724 300.446C445.518 300.652 445.238 300.768 444.946 300.768Z" fill="#3F3D56"/>
<path d="M431.806 317.657C434.428 317.657 436.553 315.53 436.553 312.907C436.553 310.283 434.428 308.157 431.806 308.157C429.184 308.157 427.059 310.283 427.059 312.907C427.059 315.53 429.184 317.657 431.806 317.657Z" fill="white"/>
<path d="M444.009 322.9C444.153 324.287 443.963 325.689 443.454 326.988C442.944 328.286 442.131 329.444 441.083 330.363C440.034 331.282 438.781 331.936 437.427 332.271C436.074 332.605 434.66 332.609 433.304 332.283L416.338 328.207L416.744 319.149L433.377 315.303C434.581 315.025 435.829 315.006 437.041 315.247C438.252 315.489 439.399 315.985 440.404 316.703C441.41 317.422 442.251 318.345 442.872 319.414C443.494 320.482 443.881 321.67 444.009 322.9Z" fill="#FFB8B8"/>
<path d="M421.087 329.827L375.3 330.972C373.647 331.014 372.005 330.694 370.488 330.035C368.972 329.377 367.617 328.395 366.518 327.159C365.419 325.923 364.603 324.461 364.126 322.877C363.649 321.293 363.524 319.624 363.757 317.986C364.124 315.42 365.355 313.056 367.246 311.285L388.804 291.104C392.803 287.361 397.785 284.837 403.166 283.827L410.721 282.409L415.164 315.997L389.497 313.033L419.606 316.491L421.087 329.827Z" fill="#6C63FF"/>
<path d="M360.767 428.385H243.875C242.836 428.385 241.839 427.972 241.104 427.236C240.369 426.501 239.956 425.503 239.956 424.463C282.329 419.535 323.906 419.535 364.686 424.463C364.686 425.503 364.273 426.501 363.538 427.236C362.803 427.972 361.806 428.385 360.767 428.385Z" fill="#2F2E41"/>
<path d="M364.686 424.694L239.956 424.463L254.411 400.123L254.481 400.007V346.364C254.481 345.713 254.609 345.069 254.858 344.467C255.107 343.865 255.472 343.319 255.932 342.858C256.392 342.398 256.938 342.033 257.539 341.784C258.14 341.535 258.785 341.406 259.435 341.406H344.515C345.165 341.406 345.81 341.535 346.411 341.784C347.012 342.033 347.558 342.398 348.018 342.858C348.478 343.319 348.843 343.865 349.092 344.467C349.341 345.069 349.469 345.713 349.469 346.364V400.377L364.686 424.694Z" fill="#3F3D56"/>
<path d="M259.322 344.867C258.894 344.868 258.484 345.038 258.181 345.341C257.879 345.643 257.709 346.054 257.708 346.482V395.393C257.709 395.821 257.879 396.232 258.182 396.535C258.484 396.837 258.894 397.008 259.322 397.008H345.319C345.747 397.008 346.157 396.837 346.46 396.535C346.762 396.232 346.933 395.821 346.933 395.393V346.482C346.933 346.054 346.762 345.643 346.46 345.341C346.157 345.038 345.747 344.868 345.319 344.867L259.322 344.867Z" fill="white"/>
<path d="M259.887 403.468C259.755 403.468 259.626 403.506 259.514 403.578C259.403 403.649 259.314 403.751 259.259 403.871L254.805 413.561C254.756 413.666 254.735 413.782 254.743 413.898C254.751 414.014 254.788 414.126 254.85 414.224C254.913 414.321 254.999 414.402 255.101 414.457C255.203 414.513 255.317 414.542 255.433 414.542H349.104C349.222 414.542 349.338 414.512 349.441 414.455C349.544 414.397 349.631 414.314 349.693 414.214C349.754 414.114 349.79 413.999 349.795 413.881C349.8 413.763 349.775 413.646 349.723 413.541L344.881 403.851C344.824 403.736 344.736 403.639 344.626 403.571C344.517 403.503 344.391 403.468 344.263 403.468L259.887 403.468Z" fill="#2F2E41"/>
<path d="M301.975 344.06C302.548 344.06 303.012 343.595 303.012 343.021C303.012 342.448 302.548 341.983 301.975 341.983C301.402 341.983 300.937 342.448 300.937 343.021C300.937 343.595 301.402 344.06 301.975 344.06Z" fill="white"/>
<path d="M292.768 416.388C292.616 416.388 292.468 416.438 292.347 416.531C292.227 416.624 292.14 416.753 292.1 416.9L290.983 421.053C290.955 421.156 290.951 421.263 290.972 421.367C290.992 421.472 291.037 421.57 291.101 421.654C291.166 421.738 291.249 421.807 291.344 421.854C291.439 421.901 291.544 421.925 291.65 421.925H312.899C313.01 421.925 313.118 421.899 313.216 421.848C313.314 421.798 313.399 421.724 313.463 421.634C313.527 421.545 313.568 421.441 313.584 421.331C313.599 421.222 313.589 421.111 313.553 421.007L312.116 416.854C312.069 416.718 311.981 416.6 311.864 416.516C311.747 416.433 311.606 416.388 311.463 416.388H292.768Z" fill="#2F2E41"/>
<path d="M349.469 399.2V400.123H254.411L254.483 400.007V399.2H349.469Z" fill="#2F2E41"/>
<path d="M214.136 368.421C214.397 378.183 216.031 387.861 218.99 397.167C219.058 397.383 219.129 397.596 219.2 397.812H237.316C237.297 397.618 237.277 397.402 237.258 397.167C236.05 383.271 229.086 298.695 237.413 284.231C236.685 285.405 212.732 324.266 214.136 368.421Z" fill="#D08787"/>
<path d="M215.495 397.167C215.647 397.383 215.805 397.599 215.966 397.812H229.556C229.453 397.628 229.334 397.412 229.195 397.167C226.95 393.112 220.305 380.989 214.136 368.421C207.507 354.915 201.425 340.896 201.937 335.822C201.779 336.967 197.192 371.85 215.495 397.167Z" fill="#D08787"/>
<path d="M246.147 103.999L253.512 98.1043C247.791 97.4726 245.44 100.595 244.478 103.067C240.007 101.209 235.141 103.644 235.141 103.644L249.878 108.997C249.134 107.01 247.84 105.276 246.147 103.999Z" fill="#3F3D56"/>
<path d="M467.986 73.6558L475.352 67.7609C469.63 67.1292 467.279 70.2519 466.317 72.7235C461.846 70.8661 456.98 73.3004 456.98 73.3004L471.717 78.654C470.973 76.6669 469.679 74.9331 467.986 73.6558Z" fill="#3F3D56"/>
<path d="M425.574 151.884L432.939 145.989C427.217 145.358 424.866 148.48 423.904 150.952C419.434 149.094 414.568 151.529 414.568 151.529L429.305 156.882C428.561 154.895 427.267 153.161 425.574 151.884Z" fill="#3F3D56"/>
<path d="M136.45 267.789C172.596 261.267 191.118 196.152 177.821 122.351C164.523 48.549 124.442 -5.99248 88.2968 0.528904C52.1513 7.05029 33.6291 72.165 46.9263 145.967C60.2235 219.768 100.305 274.31 136.45 267.789Z" fill="#D08787"/>
<path d="M101.482 108.743C107.331 124.66 112.536 140.794 117.098 157.144C121.65 173.479 125.544 189.979 128.78 206.644C132.016 223.303 134.581 240.074 136.476 256.956C138.362 273.809 139.573 290.719 140.111 307.687C140.645 324.637 140.497 341.59 139.668 358.546C139.566 360.623 139.454 362.7 139.331 364.776C139.206 366.903 142.512 366.896 142.637 364.776C143.636 347.767 143.949 330.736 143.577 313.684C143.203 296.73 142.151 279.809 140.421 262.921C138.687 245.984 136.285 229.133 133.214 212.367C130.142 195.608 126.402 178.991 121.993 162.515C117.587 146.057 112.521 129.795 106.795 113.73C106.096 111.771 105.388 109.816 104.67 107.864C103.941 105.882 100.745 106.739 101.482 108.743V108.743Z" fill="#3F3D56"/>
<path d="M124.261 171.356L138.907 138.814L143.035 129.642C143.244 129.26 143.298 128.813 143.188 128.392C143.078 127.971 142.811 127.609 142.442 127.379C142.063 127.16 141.613 127.1 141.19 127.211C140.767 127.323 140.405 127.596 140.181 127.972L125.535 160.514L121.407 169.687C121.198 170.068 121.144 170.515 121.254 170.936C121.364 171.357 121.631 171.719 122 171.95C122.379 172.168 122.829 172.228 123.252 172.117C123.675 172.006 124.038 171.733 124.261 171.356H124.261Z" fill="#3F3D56"/>
<path d="M127.497 193.592L94.1011 181.062L84.6883 177.531C84.2657 177.418 83.8157 177.476 83.4353 177.692C83.0549 177.908 82.7746 178.265 82.655 178.686C82.548 179.109 82.6084 179.556 82.8235 179.936C83.0387 180.315 83.3919 180.596 83.8095 180.721L117.206 193.251L126.618 196.782C127.041 196.895 127.491 196.837 127.871 196.621C128.252 196.405 128.532 196.048 128.652 195.627C128.759 195.204 128.698 194.756 128.483 194.377C128.268 193.998 127.915 193.717 127.497 193.592V193.592Z" fill="#3F3D56"/>
<path d="M101.491 371.088C101.491 371.088 141.713 357.856 179.179 371.088H101.491Z" fill="#D08787"/>
<path d="M281.465 364.819C289.436 364.736 297.405 364.593 305.375 364.485C308.032 364.449 310.689 364.417 313.346 364.39C315.635 364.366 315.641 360.804 313.346 360.828C305.376 360.911 297.406 361.053 289.436 361.161C286.779 361.198 284.122 361.229 281.465 361.257C279.176 361.28 279.17 364.843 281.465 364.819Z" fill="#6C63FF"/>
<path d="M281.465 373.131L313.678 372.797L322.839 372.702C325.129 372.679 325.134 369.116 322.839 369.14L290.627 369.474L281.465 369.569C279.176 369.593 279.17 373.155 281.465 373.131Z" fill="#6C63FF"/>
<path d="M281.465 381.444L313.678 381.11L322.839 381.015C325.129 380.991 325.134 377.428 322.839 377.452L290.627 377.786L281.465 377.881C279.176 377.905 279.17 381.467 281.465 381.444Z" fill="#6C63FF"/>
</g>
<defs>
<clipPath id="clip0">
<rect width="557" height="479" fill="white"/>
</clipPath>
</defs>
</svg>
